%TF.GenerationSoftware,KiCad,Pcbnew,7.0.1-0*%
%TF.CreationDate,2023-10-13T23:04:16+03:00*%
%TF.ProjectId,trezor_v1.1,7472657a-6f72-45f7-9631-2e312e6b6963,rev?*%
%TF.SameCoordinates,Original*%
%TF.FileFunction,Copper,L1,Top*%
%TF.FilePolarity,Positive*%
%FSLAX46Y46*%
G04 Gerber Fmt 4.6, Leading zero omitted, Abs format (unit mm)*
G04 Created by KiCad (PCBNEW 7.0.1-0) date 2023-10-13 23:04:16*
%MOMM*%
%LPD*%
G01*
G04 APERTURE LIST*
G04 Aperture macros list*
%AMRoundRect*
0 Rectangle with rounded corners*
0 $1 Rounding radius*
0 $2 $3 $4 $5 $6 $7 $8 $9 X,Y pos of 4 corners*
0 Add a 4 corners polygon primitive as box body*
4,1,4,$2,$3,$4,$5,$6,$7,$8,$9,$2,$3,0*
0 Add four circle primitives for the rounded corners*
1,1,$1+$1,$2,$3*
1,1,$1+$1,$4,$5*
1,1,$1+$1,$6,$7*
1,1,$1+$1,$8,$9*
0 Add four rect primitives between the rounded corners*
20,1,$1+$1,$2,$3,$4,$5,0*
20,1,$1+$1,$4,$5,$6,$7,0*
20,1,$1+$1,$6,$7,$8,$9,0*
20,1,$1+$1,$8,$9,$2,$3,0*%
G04 Aperture macros list end*
%TA.AperFunction,EtchedComponent*%
%ADD10C,0.609600*%
%TD*%
%TA.AperFunction,SMDPad,CuDef*%
%ADD11R,1.200000X1.400000*%
%TD*%
%TA.AperFunction,SMDPad,CuDef*%
%ADD12R,1.220000X0.650000*%
%TD*%
%TA.AperFunction,SMDPad,CuDef*%
%ADD13RoundRect,0.075000X0.662500X0.075000X-0.662500X0.075000X-0.662500X-0.075000X0.662500X-0.075000X0*%
%TD*%
%TA.AperFunction,SMDPad,CuDef*%
%ADD14RoundRect,0.075000X0.075000X0.662500X-0.075000X0.662500X-0.075000X-0.662500X0.075000X-0.662500X0*%
%TD*%
%TA.AperFunction,ComponentPad*%
%ADD15R,1.106400X1.106400*%
%TD*%
%TA.AperFunction,ComponentPad*%
%ADD16C,1.106400*%
%TD*%
%TA.AperFunction,SMDPad,CuDef*%
%ADD17RoundRect,0.237500X0.237500X-0.287500X0.237500X0.287500X-0.237500X0.287500X-0.237500X-0.287500X0*%
%TD*%
%TA.AperFunction,SMDPad,CuDef*%
%ADD18R,1.000000X0.700000*%
%TD*%
%TA.AperFunction,SMDPad,CuDef*%
%ADD19R,0.600000X0.700000*%
%TD*%
%TA.AperFunction,SMDPad,CuDef*%
%ADD20RoundRect,0.250000X0.250000X0.250000X-0.250000X0.250000X-0.250000X-0.250000X0.250000X-0.250000X0*%
%TD*%
%TA.AperFunction,SMDPad,CuDef*%
%ADD21RoundRect,0.200000X0.200000X0.275000X-0.200000X0.275000X-0.200000X-0.275000X0.200000X-0.275000X0*%
%TD*%
%TA.AperFunction,SMDPad,CuDef*%
%ADD22RoundRect,0.200000X-0.200000X-0.275000X0.200000X-0.275000X0.200000X0.275000X-0.200000X0.275000X0*%
%TD*%
%TA.AperFunction,SMDPad,CuDef*%
%ADD23RoundRect,0.225000X0.250000X-0.225000X0.250000X0.225000X-0.250000X0.225000X-0.250000X-0.225000X0*%
%TD*%
%TA.AperFunction,SMDPad,CuDef*%
%ADD24RoundRect,0.225000X-0.250000X0.225000X-0.250000X-0.225000X0.250000X-0.225000X0.250000X0.225000X0*%
%TD*%
%TA.AperFunction,SMDPad,CuDef*%
%ADD25RoundRect,0.225000X-0.225000X-0.250000X0.225000X-0.250000X0.225000X0.250000X-0.225000X0.250000X0*%
%TD*%
%TA.AperFunction,SMDPad,CuDef*%
%ADD26RoundRect,0.225000X0.225000X0.250000X-0.225000X0.250000X-0.225000X-0.250000X0.225000X-0.250000X0*%
%TD*%
%TA.AperFunction,SMDPad,CuDef*%
%ADD27RoundRect,0.200000X0.275000X-0.200000X0.275000X0.200000X-0.275000X0.200000X-0.275000X-0.200000X0*%
%TD*%
%TA.AperFunction,SMDPad,CuDef*%
%ADD28R,1.450000X0.600000*%
%TD*%
%TA.AperFunction,SMDPad,CuDef*%
%ADD29R,1.450000X0.300000*%
%TD*%
%TA.AperFunction,ComponentPad*%
%ADD30O,2.100000X1.000000*%
%TD*%
%TA.AperFunction,ComponentPad*%
%ADD31O,1.600000X1.000000*%
%TD*%
%TA.AperFunction,SMDPad,CuDef*%
%ADD32R,1.000000X1.450000*%
%TD*%
%TA.AperFunction,ViaPad*%
%ADD33C,0.600000*%
%TD*%
%TA.AperFunction,Conductor*%
%ADD34C,0.350000*%
%TD*%
%TA.AperFunction,Conductor*%
%ADD35C,0.250000*%
%TD*%
%TA.AperFunction,Conductor*%
%ADD36C,0.300000*%
%TD*%
%TA.AperFunction,Conductor*%
%ADD37C,0.500000*%
%TD*%
G04 APERTURE END LIST*
%TA.AperFunction,EtchedComponent*%
G36*
X143502000Y-117441600D02*
G01*
X142502000Y-117441600D01*
X142502000Y-116441600D01*
X143502000Y-116441600D01*
X143502000Y-117441600D01*
G37*
%TD.AperFunction*%
D10*
X147670800Y-116941600D02*
G75*
G03*
X147670800Y-116941600I-300000J0D01*
G01*
X147670800Y-116941600D02*
G75*
G03*
X147670800Y-116941600I-300000J0D01*
G01*
D11*
X146597000Y-103903600D03*
X146597000Y-106103600D03*
X148297000Y-106103600D03*
X148297000Y-103903600D03*
D12*
X139232000Y-113980000D03*
X139232000Y-112080000D03*
X136612000Y-113030000D03*
D13*
X143889300Y-106467600D03*
X143889300Y-105967600D03*
X143889300Y-105467600D03*
X143889300Y-104967600D03*
X143889300Y-104467600D03*
X143889300Y-103967600D03*
X143889300Y-103467600D03*
X143889300Y-102967600D03*
X143889300Y-102467600D03*
X143889300Y-101967600D03*
X143889300Y-101467600D03*
X143889300Y-100967600D03*
X143889300Y-100467600D03*
X143889300Y-99967600D03*
X143889300Y-99467600D03*
X143889300Y-98967600D03*
D14*
X141976800Y-97055100D03*
X141476800Y-97055100D03*
X140976800Y-97055100D03*
X140476800Y-97055100D03*
X139976800Y-97055100D03*
X139476800Y-97055100D03*
X138976800Y-97055100D03*
X138476800Y-97055100D03*
X137976800Y-97055100D03*
X137476800Y-97055100D03*
X136976800Y-97055100D03*
X136476800Y-97055100D03*
X135976800Y-97055100D03*
X135476800Y-97055100D03*
X134976800Y-97055100D03*
X134476800Y-97055100D03*
D13*
X132564300Y-98967600D03*
X132564300Y-99467600D03*
X132564300Y-99967600D03*
X132564300Y-100467600D03*
X132564300Y-100967600D03*
X132564300Y-101467600D03*
X132564300Y-101967600D03*
X132564300Y-102467600D03*
X132564300Y-102967600D03*
X132564300Y-103467600D03*
X132564300Y-103967600D03*
X132564300Y-104467600D03*
X132564300Y-104967600D03*
X132564300Y-105467600D03*
X132564300Y-105967600D03*
X132564300Y-106467600D03*
D14*
X134476800Y-108380100D03*
X134976800Y-108380100D03*
X135476800Y-108380100D03*
X135976800Y-108380100D03*
X136476800Y-108380100D03*
X136976800Y-108380100D03*
X137476800Y-108380100D03*
X137976800Y-108380100D03*
X138476800Y-108380100D03*
X138976800Y-108380100D03*
X139476800Y-108380100D03*
X139976800Y-108380100D03*
X140476800Y-108380100D03*
X140976800Y-108380100D03*
X141476800Y-108380100D03*
X141976800Y-108380100D03*
D15*
X144081500Y-93268800D03*
D16*
X142494000Y-93268800D03*
X140906500Y-93268800D03*
X139319000Y-93268800D03*
X137731500Y-93268800D03*
X136144000Y-93268800D03*
D17*
X134874000Y-114540000D03*
X134874000Y-112790000D03*
D18*
X130290000Y-104664000D03*
D19*
X128590000Y-104664000D03*
X128590000Y-106664000D03*
X130490000Y-106664000D03*
D20*
X132949000Y-112141000D03*
X130449000Y-112141000D03*
D21*
X130365000Y-102870000D03*
X128715000Y-102870000D03*
X130365000Y-108458000D03*
X128715000Y-108458000D03*
X130365000Y-110236000D03*
X128715000Y-110236000D03*
X130365000Y-101092000D03*
X128715000Y-101092000D03*
D22*
X128715000Y-99314000D03*
X130365000Y-99314000D03*
D23*
X150241000Y-104534000D03*
X150241000Y-102984000D03*
D24*
X150241000Y-106286000D03*
X150241000Y-107836000D03*
D25*
X136004000Y-94996000D03*
X137554000Y-94996000D03*
D26*
X135395000Y-110363000D03*
X133845000Y-110363000D03*
D23*
X132080000Y-109868000D03*
X132080000Y-108318000D03*
D25*
X140449000Y-110363000D03*
X141999000Y-110363000D03*
X132829000Y-94996000D03*
X134379000Y-94996000D03*
D23*
X143764000Y-110249000D03*
X143764000Y-108699000D03*
D26*
X142456200Y-94996000D03*
X140906200Y-94996000D03*
D23*
X144272000Y-96533000D03*
X144272000Y-94983000D03*
X170840400Y-104052500D03*
X170840400Y-102502500D03*
D24*
X170840400Y-105905000D03*
X170840400Y-107455000D03*
D23*
X170840400Y-110984500D03*
X170840400Y-109434500D03*
X170815000Y-116472000D03*
X170815000Y-114922000D03*
D24*
X141224000Y-112128000D03*
X141224000Y-113678000D03*
D25*
X136626000Y-115697000D03*
X138176000Y-115697000D03*
D23*
X143002000Y-113678000D03*
X143002000Y-112128000D03*
D27*
X170840400Y-100647000D03*
X170840400Y-98997000D03*
D24*
X170840400Y-93611400D03*
X170840400Y-95161400D03*
D28*
X126473000Y-101779000D03*
X126473000Y-102579000D03*
D29*
X126473000Y-103779000D03*
X126473000Y-104779000D03*
X126473000Y-105279000D03*
X126473000Y-106279000D03*
D28*
X126473000Y-107479000D03*
X126473000Y-108279000D03*
X126473000Y-108279000D03*
X126473000Y-107479000D03*
D29*
X126473000Y-106779000D03*
X126473000Y-105779000D03*
X126473000Y-104279000D03*
X126473000Y-103279000D03*
D28*
X126473000Y-102579000D03*
X126473000Y-101779000D03*
D30*
X125558000Y-100709000D03*
D31*
X121378000Y-100709000D03*
D30*
X125558000Y-109349000D03*
D31*
X121378000Y-109349000D03*
D32*
X148220800Y-109693000D03*
X148220800Y-114843000D03*
X146520800Y-109693000D03*
X146520800Y-114843000D03*
X148220800Y-95164200D03*
X148220800Y-100314200D03*
X146520800Y-95164200D03*
X146520800Y-100314200D03*
D33*
X170840400Y-107455000D03*
X135763000Y-106299000D03*
X172466000Y-92964000D03*
X127000000Y-101092000D03*
X168148000Y-92964000D03*
X144907000Y-114300000D03*
X134493000Y-117600000D03*
X168148000Y-107569000D03*
X153797000Y-111400000D03*
X155194000Y-95504000D03*
X163576000Y-108400000D03*
X144907000Y-117600000D03*
X151130000Y-95504000D03*
X153797000Y-117600000D03*
X146575000Y-106100000D03*
X122936000Y-99187000D03*
X133477000Y-113665000D03*
X167894000Y-117600000D03*
X159512000Y-97452395D03*
X122936000Y-110871000D03*
X148225000Y-108050000D03*
X163703000Y-92964000D03*
X132969000Y-97409000D03*
X172262800Y-112471200D03*
X163200000Y-114300000D03*
X158500000Y-117600000D03*
X151130000Y-92964000D03*
X158500000Y-111400000D03*
X151130000Y-98171000D03*
X130175000Y-96901000D03*
X156591000Y-100965000D03*
X146431000Y-97409000D03*
X145034000Y-110109000D03*
X155194000Y-92964000D03*
X172262800Y-97536000D03*
X131318000Y-114681000D03*
X146431000Y-92964000D03*
X158500000Y-114300000D03*
X163703000Y-100965000D03*
X139319000Y-110109000D03*
X158500000Y-106172000D03*
X134620000Y-111379000D03*
X163703000Y-98171000D03*
X123444000Y-105029000D03*
X131699000Y-111252000D03*
X163703000Y-95504000D03*
X137922000Y-113030000D03*
X149860000Y-114300000D03*
X130290000Y-104664000D03*
X147193000Y-112522000D03*
X131318000Y-94615000D03*
X143002000Y-96012000D03*
X150241000Y-105410000D03*
X129032000Y-112649000D03*
X126900029Y-108820981D03*
X168783000Y-104902000D03*
X138557000Y-103505000D03*
X126619000Y-110744000D03*
X158500000Y-108400000D03*
X168275000Y-100965000D03*
X141478000Y-117600000D03*
X134112000Y-92964000D03*
X162306000Y-106172000D03*
X138557000Y-106299000D03*
X172364400Y-116941600D03*
X135890000Y-94996000D03*
X153797000Y-114300000D03*
X139700000Y-115189000D03*
X149860000Y-117600000D03*
X155194000Y-98171000D03*
X145669000Y-108077000D03*
X134239000Y-99314000D03*
X148336000Y-103886000D03*
X134239000Y-103505000D03*
X159512000Y-92964000D03*
X170840399Y-101540734D03*
X163200000Y-111400000D03*
X149860000Y-110109000D03*
X152654000Y-104013000D03*
X163200000Y-117600000D03*
X137922000Y-117600000D03*
X126619000Y-99314000D03*
X143002000Y-115189000D03*
X153797000Y-108400000D03*
X140716000Y-103505000D03*
X140716000Y-106299000D03*
X136525000Y-110109000D03*
X132715000Y-108331000D03*
X141999000Y-111379000D03*
X154533600Y-109829600D03*
X169672000Y-106172000D03*
X142748000Y-111379000D03*
X155702000Y-109855000D03*
X168605200Y-112674400D03*
X168529000Y-111506000D03*
X169672000Y-95631000D03*
X168605200Y-115417600D03*
X168605200Y-114096800D03*
X127708952Y-103702100D03*
X127753329Y-106497056D03*
X137414000Y-100330000D03*
X136779000Y-99695000D03*
X136144000Y-98552000D03*
X169672000Y-98171000D03*
X148209000Y-98425000D03*
X138761548Y-98556094D03*
X141028100Y-101727000D03*
X140208000Y-99822000D03*
X139542337Y-99187000D03*
X138684000Y-99568000D03*
X138684000Y-100584000D03*
X142621000Y-103505000D03*
D34*
X170840400Y-100647000D02*
X171640000Y-100647000D01*
X171704000Y-100711000D02*
X171704000Y-102743000D01*
D35*
X134747000Y-111506000D02*
X134493000Y-111252000D01*
D34*
X171704000Y-102743000D02*
X171704000Y-107188000D01*
X144894000Y-114186000D02*
X144907000Y-114199000D01*
X142494000Y-93268800D02*
X142494000Y-92964000D01*
X168783000Y-93599000D02*
X170827800Y-93599000D01*
D35*
X134493000Y-111252000D02*
X133096000Y-111252000D01*
X150241000Y-104534000D02*
X148984000Y-104534000D01*
D34*
X171704000Y-107188000D02*
X171704000Y-112014000D01*
D36*
X141476800Y-97017600D02*
X141476800Y-96182507D01*
D34*
X172161200Y-112471200D02*
X172262800Y-112471200D01*
X171690500Y-102502500D02*
X171704000Y-102489000D01*
D36*
X143926800Y-100967600D02*
X145285400Y-100967600D01*
D34*
X140449000Y-110154600D02*
X140449000Y-110363000D01*
X170840400Y-107276800D02*
X170840400Y-107455000D01*
D35*
X133096000Y-111252000D02*
X132715000Y-110871000D01*
D34*
X126900029Y-108970909D02*
X126935400Y-109006280D01*
X144907000Y-114199000D02*
X144907000Y-114935000D01*
X127000000Y-101570343D02*
X126837491Y-101732852D01*
X126900029Y-108820981D02*
X126900029Y-108970909D01*
D37*
X139311598Y-113900402D02*
X139232000Y-113980000D01*
D34*
X171704000Y-112014000D02*
X172161200Y-112471200D01*
D37*
X137922000Y-115132340D02*
X137922000Y-110871000D01*
D34*
X142494000Y-93268800D02*
X142494000Y-94958200D01*
D36*
X141623247Y-95828953D02*
X142456200Y-94996000D01*
X145285400Y-100967600D02*
X145288000Y-100965000D01*
D34*
X171704000Y-98094800D02*
X171704000Y-100711000D01*
X126900029Y-108371096D02*
X126827947Y-108299014D01*
D37*
X138176000Y-115697000D02*
X138141670Y-115662670D01*
D34*
X126935400Y-110427600D02*
X126619000Y-110744000D01*
D36*
X141330353Y-109481647D02*
X140449000Y-110363000D01*
D35*
X141987307Y-98171000D02*
X143764000Y-98171000D01*
D36*
X143002000Y-95852460D02*
X143002000Y-96393000D01*
D34*
X170827800Y-93599000D02*
X170840400Y-93586400D01*
D36*
X140196470Y-110110470D02*
X140449000Y-110363000D01*
D34*
X126900029Y-108820981D02*
X126900029Y-108371096D01*
X142494000Y-92964000D02*
X143510000Y-91948000D01*
D36*
X141476800Y-108417600D02*
X141476800Y-109128093D01*
X139976800Y-108417600D02*
X139976800Y-106829800D01*
D35*
X148984000Y-104534000D02*
X148336000Y-103886000D01*
D34*
X168148000Y-92964000D02*
X168783000Y-93599000D01*
D36*
X143764000Y-111125000D02*
X144272000Y-111633000D01*
D34*
X126935400Y-109006280D02*
X126935400Y-110427600D01*
D36*
X139976800Y-108380100D02*
X139976800Y-109580140D01*
D34*
X172262800Y-97536000D02*
X171704000Y-98094800D01*
X140449000Y-110363000D02*
X140195000Y-110109000D01*
X171704000Y-102359211D02*
X171704000Y-102489000D01*
X140449000Y-110573713D02*
X140449000Y-110363000D01*
D35*
X136525000Y-111506000D02*
X134747000Y-111506000D01*
D37*
X141224000Y-113678000D02*
X141001598Y-113900402D01*
D34*
X144907000Y-117475000D02*
X144907000Y-114935000D01*
X127000000Y-101092000D02*
X127000000Y-101570343D01*
D35*
X141476800Y-97017600D02*
X141476800Y-97660493D01*
D34*
X170840400Y-102502500D02*
X171690500Y-102502500D01*
X170840400Y-107455000D02*
X171691000Y-107455000D01*
X171640000Y-100647000D02*
X171704000Y-100711000D01*
D36*
X143764000Y-110249000D02*
X143764000Y-111125000D01*
D37*
X138189000Y-115697000D02*
X138176000Y-115697000D01*
D34*
X171691000Y-107455000D02*
X171704000Y-107442000D01*
D36*
X142456200Y-94996000D02*
X142782330Y-95322130D01*
D37*
X141001598Y-113900402D02*
X139311598Y-113900402D01*
D34*
X142494000Y-94958200D02*
X142456200Y-94996000D01*
X127000000Y-101092000D02*
X127000000Y-99187000D01*
D35*
X141623247Y-98014047D02*
X141633754Y-98024554D01*
D36*
X139976772Y-109580140D02*
G75*
G03*
X140196470Y-110110470I750028J40D01*
G01*
X141330356Y-109481650D02*
G75*
G03*
X141476800Y-109128093I-353556J353550D01*
G01*
D35*
X141476805Y-97660493D02*
G75*
G03*
X141623247Y-98014047I499995J-7D01*
G01*
D37*
X137921972Y-115132340D02*
G75*
G03*
X138141670Y-115662670I750028J40D01*
G01*
D36*
X143002028Y-95852460D02*
G75*
G03*
X142782330Y-95322130I-750028J-40D01*
G01*
D35*
X141633751Y-98024557D02*
G75*
G03*
X141987307Y-98171000I353549J353557D01*
G01*
D36*
X141623244Y-95828950D02*
G75*
G03*
X141476800Y-96182507I353556J-353550D01*
G01*
D37*
X169672000Y-106172000D02*
X168331660Y-106172000D01*
D35*
X132715000Y-108331000D02*
X132143000Y-108331000D01*
X132143000Y-108331000D02*
X130238000Y-110236000D01*
D36*
X141869600Y-100467600D02*
X141859000Y-100457000D01*
D37*
X143002000Y-111633000D02*
X142748000Y-111379000D01*
D34*
X141653974Y-98727974D02*
X141351000Y-98425000D01*
D36*
X134379000Y-94856000D02*
X134845534Y-94389466D01*
X141351000Y-98425000D02*
X141196470Y-98270470D01*
D35*
X136144000Y-93268800D02*
X136144000Y-94169796D01*
D36*
X135375864Y-94169796D02*
X136144000Y-94169796D01*
D37*
X167801330Y-106391670D02*
X164583070Y-109609930D01*
D36*
X140976800Y-97740140D02*
X140976800Y-95186460D01*
X134476800Y-97017600D02*
X134476800Y-95093800D01*
X132526800Y-108142800D02*
X132526800Y-106467600D01*
D34*
X141859000Y-100457000D02*
X141859000Y-106299000D01*
X141859000Y-100457000D02*
X141859000Y-99222949D01*
D36*
X139960136Y-94169796D02*
X136144000Y-94169796D01*
X143926800Y-100467600D02*
X141869600Y-100467600D01*
D34*
X169672000Y-106172000D02*
X170573400Y-106172000D01*
D36*
X134476800Y-95093800D02*
X134379000Y-94996000D01*
X143926800Y-108536200D02*
X143926800Y-106467600D01*
D37*
X141999000Y-110363000D02*
X141999000Y-111379000D01*
X132093000Y-108331000D02*
X132080000Y-108318000D01*
D34*
X170840400Y-105905000D02*
X170840400Y-104330400D01*
D37*
X139232000Y-112080000D02*
X141176000Y-112080000D01*
D36*
X143208670Y-109254330D02*
X143926800Y-108536200D01*
X143889300Y-106467600D02*
X142027600Y-106467600D01*
X142093380Y-109472580D02*
X142752067Y-109472580D01*
D34*
X141997837Y-110427363D02*
X141986000Y-110439200D01*
D36*
X140757130Y-94656130D02*
X140490466Y-94389466D01*
X141997837Y-109377037D02*
X141997837Y-110427363D01*
D37*
X141176000Y-112080000D02*
X141224000Y-112128000D01*
D36*
X132715000Y-108331000D02*
X132526800Y-108142800D01*
D37*
X143002000Y-112128000D02*
X143002000Y-111633000D01*
D34*
X170573400Y-106172000D02*
X170840400Y-105905000D01*
X141859000Y-106299000D02*
X141997524Y-106437524D01*
D37*
X132715000Y-108331000D02*
X132093000Y-108331000D01*
X141338000Y-112040000D02*
X141999000Y-111379000D01*
X141999000Y-111379000D02*
X142540929Y-111379000D01*
D36*
X141997524Y-109376724D02*
X141997524Y-106437524D01*
X134379000Y-94996000D02*
X134379000Y-94856000D01*
X142027600Y-106467600D02*
X141997524Y-106437524D01*
D37*
X142540929Y-111379000D02*
X142551190Y-111368739D01*
X164052740Y-109829600D02*
X154533600Y-109829600D01*
D36*
X141997524Y-109376724D02*
X142093380Y-109472580D01*
X140976828Y-95186460D02*
G75*
G03*
X140757130Y-94656130I-750028J-40D01*
G01*
D37*
X164052740Y-109829616D02*
G75*
G03*
X164583070Y-109609930I60J749816D01*
G01*
X168331660Y-106171972D02*
G75*
G03*
X167801330Y-106391670I40J-750028D01*
G01*
D36*
X135375864Y-94169772D02*
G75*
G03*
X134845534Y-94389466I36J-750028D01*
G01*
D34*
X141859035Y-99222949D02*
G75*
G03*
X141653973Y-98727975I-700035J-51D01*
G01*
D36*
X142752065Y-109472559D02*
G75*
G03*
X143208670Y-109254330I-84865J764359D01*
G01*
X140490449Y-94389483D02*
G75*
G03*
X139960136Y-94169796I-530349J-530317D01*
G01*
X140976772Y-97740140D02*
G75*
G03*
X141196470Y-98270470I750028J40D01*
G01*
D37*
X136612000Y-113030000D02*
X136612000Y-114554000D01*
X134874000Y-114540000D02*
X136598000Y-114540000D01*
X136612000Y-115670000D02*
X136639000Y-115697000D01*
X136598000Y-114540000D02*
X136612000Y-114554000D01*
X136612000Y-114554000D02*
X136612000Y-115670000D01*
D35*
X170840400Y-111036000D02*
X170554260Y-111036000D01*
X170023930Y-111255670D02*
X168605200Y-112674400D01*
X170554260Y-111035972D02*
G75*
G03*
X170023930Y-111255670I40J-750028D01*
G01*
X168529000Y-111506000D02*
X170599000Y-109436000D01*
X170599000Y-109436000D02*
X170840400Y-109436000D01*
X170827600Y-95199200D02*
X170840400Y-95186400D01*
X170414460Y-95199200D02*
X170827600Y-95199200D01*
X169672000Y-95631000D02*
X169884130Y-95418870D01*
X170414460Y-95199172D02*
G75*
G03*
X169884130Y-95418870I40J-750028D01*
G01*
X169464930Y-116277330D02*
X168605200Y-115417600D01*
X170815000Y-116497000D02*
X169995260Y-116497000D01*
X169464950Y-116277310D02*
G75*
G03*
X169995260Y-116497000I530350J530310D01*
G01*
X169185730Y-114677330D02*
X168605200Y-114096800D01*
X170815000Y-114897000D02*
X169716060Y-114897000D01*
X169185750Y-114677310D02*
G75*
G03*
X169716060Y-114897000I530350J530310D01*
G01*
X125616975Y-105279000D02*
X126473000Y-105279000D01*
X128715000Y-102870000D02*
X128715000Y-104225000D01*
X125361487Y-104381513D02*
X125324512Y-104418488D01*
X125222000Y-104665975D02*
X125222000Y-104884025D01*
X128661000Y-104279000D02*
X128715000Y-104225000D01*
X125324513Y-105131513D02*
X125369488Y-105176488D01*
X126473000Y-104279000D02*
X125608975Y-104279000D01*
X128715000Y-104225000D02*
X128715000Y-104539000D01*
X128715000Y-104539000D02*
X128590000Y-104664000D01*
X126473000Y-104279000D02*
X128661000Y-104279000D01*
X125324525Y-104418501D02*
G75*
G03*
X125222000Y-104665975I247475J-247499D01*
G01*
X125221983Y-104884025D02*
G75*
G03*
X125324514Y-105131512I350017J25D01*
G01*
X125369501Y-105176475D02*
G75*
G03*
X125616975Y-105279000I247499J247475D01*
G01*
X125608975Y-104278983D02*
G75*
G03*
X125361488Y-104381514I25J-350017D01*
G01*
X127759491Y-105779000D02*
X127762000Y-105776491D01*
X127659487Y-104993037D02*
X127547962Y-104881512D01*
X127762000Y-105776491D02*
X127762000Y-105240525D01*
X127763491Y-105775000D02*
X127992893Y-105775000D01*
X128588000Y-106370107D02*
X128588000Y-108331000D01*
X127300475Y-104779000D02*
X126473000Y-104779000D01*
X128346447Y-105921447D02*
X128441554Y-106016554D01*
X126473000Y-105779000D02*
X127759491Y-105779000D01*
X127759491Y-105779000D02*
X127763491Y-105775000D01*
X128346450Y-105921444D02*
G75*
G03*
X127992893Y-105775000I-353550J-353556D01*
G01*
X127761982Y-105240525D02*
G75*
G03*
X127659487Y-104993037I-349982J25D01*
G01*
X128587995Y-106370107D02*
G75*
G03*
X128441554Y-106016554I-499995J7D01*
G01*
X127547974Y-104881500D02*
G75*
G03*
X127300475Y-104779000I-247474J-247500D01*
G01*
D34*
X126018490Y-107479000D02*
X126473000Y-107479000D01*
D35*
X126473000Y-102579000D02*
X126980340Y-102579000D01*
X129540000Y-102264437D02*
X129540000Y-103321141D01*
X129258442Y-101672219D02*
X129320330Y-101734107D01*
X129350000Y-104303858D02*
X129350000Y-105109786D01*
X129642893Y-105816893D02*
X130490000Y-106664000D01*
D37*
X127981670Y-111090670D02*
X128050330Y-111159330D01*
D34*
X126473000Y-102579000D02*
X126077660Y-102579000D01*
D37*
X128580660Y-111379000D02*
X129376340Y-111379000D01*
D35*
X127510670Y-102359330D02*
X128197782Y-101672218D01*
X129507333Y-103574649D02*
X129382667Y-104050351D01*
D34*
X124587000Y-104069660D02*
X124587000Y-106047510D01*
D37*
X126473000Y-107479000D02*
X127357825Y-107479000D01*
D34*
X125547330Y-102798670D02*
X124806670Y-103539330D01*
D37*
X127605313Y-107581513D02*
X127659488Y-107635688D01*
X129906670Y-111598670D02*
X130449000Y-112141000D01*
D34*
X124806670Y-106577840D02*
X125488160Y-107259330D01*
D37*
X127762000Y-107883175D02*
X127762000Y-110560340D01*
D35*
X129539973Y-102264437D02*
G75*
G03*
X129320329Y-101734108I-749973J37D01*
G01*
X129507326Y-103574647D02*
G75*
G03*
X129540000Y-103321141I-967426J253547D01*
G01*
D34*
X126077660Y-102578972D02*
G75*
G03*
X125547330Y-102798670I40J-750028D01*
G01*
D35*
X126980340Y-102579028D02*
G75*
G03*
X127510670Y-102359330I-40J750028D01*
G01*
D37*
X128050350Y-111159310D02*
G75*
G03*
X128580660Y-111379000I530350J530310D01*
G01*
D34*
X125488165Y-107259325D02*
G75*
G03*
X126018490Y-107479000I530335J530325D01*
G01*
D35*
X129382674Y-104050353D02*
G75*
G03*
X129350000Y-104303858I967426J-253547D01*
G01*
X129350010Y-105109786D02*
G75*
G03*
X129642893Y-105816893I999990J-14D01*
G01*
X129258430Y-101672231D02*
G75*
G03*
X128197782Y-101672218I-530330J-530269D01*
G01*
D37*
X129906650Y-111598690D02*
G75*
G03*
X129376340Y-111379000I-530350J-530310D01*
G01*
X127761972Y-110560340D02*
G75*
G03*
X127981670Y-111090670I750028J40D01*
G01*
D34*
X124586994Y-106047510D02*
G75*
G03*
X124806671Y-106577839I750006J10D01*
G01*
D37*
X127762017Y-107883175D02*
G75*
G03*
X127659487Y-107635689I-350017J-25D01*
G01*
D34*
X124806690Y-103539350D02*
G75*
G03*
X124587000Y-104069660I530310J-530350D01*
G01*
D37*
X127605300Y-107581526D02*
G75*
G03*
X127357825Y-107479000I-247500J-247474D01*
G01*
D35*
X127708952Y-103716952D02*
X127771000Y-103779000D01*
X127771000Y-103779000D02*
X126473000Y-103779000D01*
X127771000Y-103779000D02*
X127521000Y-103779000D01*
X127708952Y-103702100D02*
X127708952Y-103716952D01*
X127264278Y-106779000D02*
X126473000Y-106779000D01*
X127753329Y-106497056D02*
X127617831Y-106632554D01*
X127264278Y-106778984D02*
G75*
G03*
X127617831Y-106632554I22J499984D01*
G01*
X137476800Y-100392800D02*
X137476800Y-108417600D01*
X137414000Y-100330000D02*
X137476800Y-100392800D01*
X134478281Y-106171138D02*
X134476800Y-106244860D01*
X136830008Y-99746008D02*
X136830008Y-103270332D01*
X134476800Y-106244860D02*
X134476800Y-108417600D01*
X134563483Y-105890312D02*
X134507052Y-106026530D01*
X134507052Y-106026530D02*
X134478281Y-106171138D01*
X134696470Y-105714530D02*
X134645403Y-105767721D01*
X136779000Y-99695000D02*
X136830008Y-99746008D01*
X136610338Y-103800662D02*
X134696470Y-105714530D01*
X134645403Y-105767721D02*
X134563483Y-105890312D01*
X136610324Y-103800648D02*
G75*
G03*
X136830008Y-103270332I-530324J530348D01*
G01*
X136144000Y-98552000D02*
X136188619Y-98596619D01*
X135543330Y-103851670D02*
X134147070Y-105247930D01*
X136188619Y-98596619D02*
X136188619Y-102895721D01*
X135968949Y-103426051D02*
X135543330Y-103851670D01*
X133616740Y-105467600D02*
X132564300Y-105467600D01*
X135968943Y-103426045D02*
G75*
G03*
X136188619Y-102895721I-530343J530345D01*
G01*
X133616740Y-105467628D02*
G75*
G03*
X134147070Y-105247930I-40J750028D01*
G01*
X169672000Y-98171000D02*
X170764200Y-99263200D01*
X170764200Y-99263200D02*
X170840400Y-99263200D01*
X138123247Y-97937416D02*
X138741925Y-98556094D01*
X137976800Y-97055100D02*
X137976800Y-97583862D01*
D34*
X148220800Y-95164200D02*
X148220800Y-100314200D01*
D35*
X138741925Y-98556094D02*
X138761548Y-98556094D01*
X137976827Y-97583862D02*
G75*
G03*
X138123247Y-97937416I499973J-38D01*
G01*
X150483940Y-109047400D02*
X149177060Y-109047400D01*
X151384000Y-102926660D02*
X151384000Y-108147340D01*
X151164330Y-108677670D02*
X151014270Y-108827730D01*
X150955270Y-102187270D02*
X151164330Y-102396330D01*
X148220800Y-109693000D02*
X148220800Y-114843000D01*
X148646730Y-109267070D02*
X148220800Y-109693000D01*
X143889300Y-101967600D02*
X150424940Y-101967600D01*
X151164310Y-108677650D02*
G75*
G03*
X151384000Y-108147340I-530310J530350D01*
G01*
X149177060Y-109047372D02*
G75*
G03*
X148646730Y-109267070I40J-750028D01*
G01*
X151384028Y-102926660D02*
G75*
G03*
X151164330Y-102396330I-750028J-40D01*
G01*
X150483940Y-109047428D02*
G75*
G03*
X151014270Y-108827730I-40J750028D01*
G01*
X150955250Y-102187290D02*
G75*
G03*
X150424940Y-101967600I-530350J-530310D01*
G01*
X141028100Y-101727000D02*
X140968611Y-101667511D01*
X140968611Y-101667511D02*
X140968611Y-99154143D01*
X140764974Y-98727974D02*
X140681825Y-98644825D01*
X140476800Y-98149851D02*
X140476800Y-97017600D01*
X140968604Y-99154144D02*
G75*
G03*
X140764974Y-98727974I-712804J-78856D01*
G01*
X140476765Y-98149851D02*
G75*
G03*
X140681826Y-98644824I700035J51D01*
G01*
X140208000Y-99822000D02*
X140208000Y-99003785D01*
X140105487Y-98756297D02*
X140079312Y-98730122D01*
X139976800Y-98482635D02*
X139976800Y-97017600D01*
X139976776Y-98482635D02*
G75*
G03*
X140079313Y-98730121I350024J35D01*
G01*
X140208010Y-99003785D02*
G75*
G03*
X140105486Y-98756298I-350010J-15D01*
G01*
X139542337Y-99187000D02*
X139497680Y-99142343D01*
X139292654Y-98271654D02*
X139181825Y-98160825D01*
X139497680Y-99142343D02*
X139497680Y-98766629D01*
X138976800Y-97665851D02*
X138976800Y-97017600D01*
X138976835Y-97665851D02*
G75*
G03*
X139181825Y-98160825I699965J-49D01*
G01*
X139497665Y-98766629D02*
G75*
G03*
X139292654Y-98271654I-699965J29D01*
G01*
X137696470Y-98580470D02*
X138684000Y-99568000D01*
X137476800Y-97055100D02*
X137476800Y-98050140D01*
X137476772Y-98050140D02*
G75*
G03*
X137696470Y-98580470I750028J40D01*
G01*
X137196470Y-99096470D02*
X138684000Y-100584000D01*
X136976800Y-97055100D02*
X136976800Y-98566140D01*
X136976772Y-98566140D02*
G75*
G03*
X137196470Y-99096470I750028J40D01*
G01*
X128588000Y-110236000D02*
X131171554Y-107652446D01*
X131464447Y-105136553D02*
X131486954Y-105114046D01*
X131840507Y-104967600D02*
X132564300Y-104967600D01*
X131318000Y-107298893D02*
X131318000Y-105490107D01*
X131464444Y-105136550D02*
G75*
G03*
X131318000Y-105490107I353556J-353550D01*
G01*
X131840507Y-104967605D02*
G75*
G03*
X131486954Y-105114046I-7J-499995D01*
G01*
X131171557Y-107652449D02*
G75*
G03*
X131318000Y-107298893I-353557J353549D01*
G01*
X131464447Y-103270447D02*
X131515154Y-103321154D01*
X131868707Y-103467600D02*
X132564300Y-103467600D01*
X130238000Y-99314000D02*
X130368775Y-99444775D01*
X130368775Y-99444775D02*
X130368775Y-101015668D01*
X131318000Y-102379107D02*
X131318000Y-102916893D01*
X130515222Y-101369222D02*
X131171554Y-102025554D01*
X131515151Y-103321157D02*
G75*
G03*
X131868707Y-103467600I353549J353557D01*
G01*
X131317995Y-102379107D02*
G75*
G03*
X131171554Y-102025554I-499995J7D01*
G01*
X131318005Y-102916893D02*
G75*
G03*
X131464447Y-103270447I499995J-7D01*
G01*
X130368805Y-101015668D02*
G75*
G03*
X130515222Y-101369222I499995J-32D01*
G01*
X131499153Y-104321153D02*
X130238000Y-103060000D01*
X130238000Y-103060000D02*
X130238000Y-102870000D01*
X132564300Y-104467600D02*
X131852707Y-104467600D01*
X131499150Y-104321156D02*
G75*
G03*
X131852707Y-104467600I353550J353556D01*
G01*
X142658400Y-103467600D02*
X143926800Y-103467600D01*
X144272000Y-94983000D02*
X144272000Y-93459300D01*
X142621000Y-103505000D02*
X142658400Y-103467600D01*
X144272000Y-93459300D02*
X144081500Y-93268800D01*
X149792893Y-102743000D02*
X147527107Y-102743000D01*
X143889300Y-103967600D02*
X143892373Y-103970673D01*
X150241000Y-102984000D02*
X150146446Y-102889446D01*
X146529927Y-103970673D02*
X146597000Y-103903600D01*
X146597000Y-103673107D02*
X146597000Y-103903600D01*
X147173553Y-102889447D02*
X146743446Y-103319554D01*
X143892373Y-103970673D02*
X146529927Y-103970673D01*
X147527107Y-102743005D02*
G75*
G03*
X147173553Y-102889447I-7J-499995D01*
G01*
X146743443Y-103319551D02*
G75*
G03*
X146597000Y-103673107I353557J-353549D01*
G01*
X150146449Y-102889443D02*
G75*
G03*
X149792893Y-102743000I-353549J-353557D01*
G01*
X150241000Y-107836000D02*
X150029400Y-107836000D01*
X148297000Y-105752000D02*
X148297000Y-106103600D01*
X143889300Y-104467600D02*
X144900493Y-104467600D01*
X145254047Y-104614047D02*
X145522554Y-104882554D01*
X150029400Y-107836000D02*
X148297000Y-106103600D01*
X147792301Y-105247301D02*
X148297000Y-105752000D01*
X145810461Y-105027631D02*
X147261971Y-105027631D01*
X145522531Y-104882577D02*
G75*
G03*
X145810461Y-105027631I370769J377677D01*
G01*
X147792309Y-105247293D02*
G75*
G03*
X147261971Y-105027631I-530309J-530307D01*
G01*
X145254050Y-104614044D02*
G75*
G03*
X144900493Y-104467600I-353550J-353556D01*
G01*
X137554000Y-95473025D02*
X137554000Y-94996000D01*
X134976800Y-97017600D02*
X134976800Y-96312575D01*
X135079313Y-96065087D02*
X135156888Y-95987512D01*
X137389513Y-95782487D02*
X137451488Y-95720512D01*
X135404375Y-95885000D02*
X137142025Y-95885000D01*
X137142025Y-95885017D02*
G75*
G03*
X137389512Y-95782486I-25J350017D01*
G01*
X135079326Y-96065100D02*
G75*
G03*
X134976800Y-96312575I247474J-247500D01*
G01*
X135404375Y-95884983D02*
G75*
G03*
X135156889Y-95987513I25J-350017D01*
G01*
X137451475Y-95720499D02*
G75*
G03*
X137554000Y-95473025I-247475J247499D01*
G01*
X132564300Y-105967600D02*
X133278566Y-105967600D01*
X133632120Y-106114047D02*
X133651473Y-106133400D01*
X133797919Y-110283081D02*
X133718000Y-110363000D01*
X133797919Y-106486953D02*
X133797919Y-110283081D01*
X133632137Y-106114030D02*
G75*
G03*
X133278566Y-105967600I-353537J-353570D01*
G01*
X133797946Y-106486953D02*
G75*
G03*
X133651472Y-106133401I-500046J-47D01*
G01*
D37*
X134444670Y-112360670D02*
X134874000Y-112790000D01*
X132949000Y-112141000D02*
X133914340Y-112141000D01*
X134444650Y-112360690D02*
G75*
G03*
X133914340Y-112141000I-530350J-530310D01*
G01*
%TA.AperFunction,Conductor*%
G36*
X139657601Y-100436270D02*
G01*
X139686737Y-100453678D01*
X139688698Y-100450558D01*
X139778229Y-100506814D01*
X139854985Y-100555043D01*
X140026953Y-100615217D01*
X140208000Y-100635616D01*
X140208002Y-100635615D01*
X140222107Y-100637205D01*
X140221611Y-100641599D01*
X140263792Y-100648772D01*
X140315802Y-100695258D01*
X140335111Y-100762288D01*
X140335111Y-101273940D01*
X140315798Y-101340976D01*
X140295057Y-101373985D01*
X140234883Y-101545950D01*
X140214484Y-101726999D01*
X140234883Y-101908049D01*
X140295056Y-102080014D01*
X140391989Y-102234282D01*
X140520817Y-102363110D01*
X140520819Y-102363111D01*
X140675085Y-102460043D01*
X140847053Y-102520217D01*
X141028100Y-102540616D01*
X141035394Y-102539794D01*
X141104170Y-102551480D01*
X141156187Y-102597966D01*
X141175500Y-102665002D01*
X141175500Y-106274541D01*
X141175270Y-106282149D01*
X141171735Y-106340572D01*
X141182285Y-106398139D01*
X141183430Y-106405662D01*
X141190487Y-106463775D01*
X141193833Y-106472599D01*
X141199954Y-106494556D01*
X141201654Y-106503834D01*
X141225676Y-106557206D01*
X141228588Y-106564238D01*
X141237615Y-106588040D01*
X141249347Y-106618973D01*
X141254706Y-106626738D01*
X141265905Y-106646594D01*
X141266603Y-106648145D01*
X141269776Y-106655196D01*
X141269777Y-106655197D01*
X141305881Y-106701281D01*
X141310381Y-106707397D01*
X141316719Y-106716579D01*
X141333319Y-106750670D01*
X141339024Y-106788156D01*
X141339024Y-107023203D01*
X141319291Y-107090903D01*
X141266274Y-107137398D01*
X141196578Y-107148125D01*
X141090045Y-107134100D01*
X141090044Y-107134100D01*
X140863556Y-107134100D01*
X140863555Y-107134100D01*
X140743246Y-107149939D01*
X140710354Y-107149939D01*
X140590045Y-107134100D01*
X140590044Y-107134100D01*
X140363556Y-107134100D01*
X140363555Y-107134100D01*
X140241331Y-107150191D01*
X140208438Y-107150191D01*
X140126800Y-107139443D01*
X140124323Y-107141615D01*
X140113805Y-107186723D01*
X140077502Y-107230957D01*
X140053502Y-107249372D01*
X140004070Y-107272421D01*
X139949530Y-107272421D01*
X139900098Y-107249372D01*
X139876098Y-107230957D01*
X139839795Y-107186723D01*
X139829276Y-107141615D01*
X139826799Y-107139442D01*
X139745161Y-107150191D01*
X139712268Y-107150191D01*
X139590045Y-107134100D01*
X139590044Y-107134100D01*
X139363556Y-107134100D01*
X139363555Y-107134100D01*
X139243246Y-107149939D01*
X139210354Y-107149939D01*
X139090045Y-107134100D01*
X139090044Y-107134100D01*
X138863556Y-107134100D01*
X138863555Y-107134100D01*
X138743246Y-107149939D01*
X138710354Y-107149939D01*
X138590045Y-107134100D01*
X138590044Y-107134100D01*
X138363556Y-107134100D01*
X138363555Y-107134100D01*
X138252746Y-107148688D01*
X138183050Y-107137961D01*
X138130033Y-107091466D01*
X138110300Y-107023766D01*
X138110300Y-101406357D01*
X138127775Y-101342340D01*
X138175351Y-101296079D01*
X138239833Y-101280407D01*
X138303334Y-101299668D01*
X138330985Y-101317043D01*
X138502953Y-101377217D01*
X138684000Y-101397616D01*
X138865047Y-101377217D01*
X139037015Y-101317043D01*
X139191281Y-101220111D01*
X139320111Y-101091281D01*
X139417043Y-100937015D01*
X139477217Y-100765047D01*
X139497616Y-100584000D01*
X139496157Y-100571054D01*
X139504420Y-100510041D01*
X139540612Y-100460225D01*
X139596088Y-100433508D01*
X139657601Y-100436270D01*
G37*
%TD.AperFunction*%
%TA.AperFunction,Conductor*%
G36*
X136791361Y-104665860D02*
G01*
X136829567Y-104710593D01*
X136843300Y-104767796D01*
X136843300Y-107023766D01*
X136823567Y-107091466D01*
X136770550Y-107137961D01*
X136700854Y-107148688D01*
X136590045Y-107134100D01*
X136590044Y-107134100D01*
X136363556Y-107134100D01*
X136363555Y-107134100D01*
X136243246Y-107149939D01*
X136210354Y-107149939D01*
X136090045Y-107134100D01*
X136090044Y-107134100D01*
X135863556Y-107134100D01*
X135863555Y-107134100D01*
X135743246Y-107149939D01*
X135710354Y-107149939D01*
X135590045Y-107134100D01*
X135590044Y-107134100D01*
X135363556Y-107134100D01*
X135363555Y-107134100D01*
X135252746Y-107148688D01*
X135183050Y-107137961D01*
X135130033Y-107091466D01*
X135110300Y-107023766D01*
X135110300Y-106253398D01*
X135112719Y-106228828D01*
X135112864Y-106228097D01*
X135113558Y-106224610D01*
X135132375Y-106179178D01*
X135134858Y-106175463D01*
X135150512Y-106156390D01*
X136373388Y-104933516D01*
X136628205Y-104678700D01*
X136678364Y-104647963D01*
X136737011Y-104643347D01*
X136791361Y-104665860D01*
G37*
%TD.AperFunction*%
%TA.AperFunction,Conductor*%
G36*
X150432000Y-104296881D02*
G01*
X150478119Y-104343000D01*
X150495000Y-104406000D01*
X150495000Y-106414000D01*
X150478119Y-106477000D01*
X150432000Y-106523119D01*
X150369000Y-106540000D01*
X150113000Y-106540000D01*
X150050000Y-106523119D01*
X150003881Y-106477000D01*
X149987000Y-106414000D01*
X149987000Y-104406000D01*
X150003881Y-104343000D01*
X150050000Y-104296881D01*
X150113000Y-104280000D01*
X150369000Y-104280000D01*
X150432000Y-104296881D01*
G37*
%TD.AperFunction*%
%TA.AperFunction,Conductor*%
G36*
X171993386Y-91683832D02*
G01*
X172512327Y-91778184D01*
X172558450Y-91796506D01*
X173017450Y-92094855D01*
X173055313Y-92133215D01*
X173330725Y-92569286D01*
X173347317Y-92609803D01*
X173465924Y-93155390D01*
X173468800Y-93182156D01*
X173468800Y-97692187D01*
X173462869Y-97730391D01*
X173304073Y-98229461D01*
X173288353Y-98261877D01*
X173264103Y-98288520D01*
X172870337Y-98612797D01*
X172858374Y-98621522D01*
X172517772Y-98840481D01*
X172507726Y-98845997D01*
X172500547Y-98854945D01*
X172206270Y-99173745D01*
X172200628Y-99179365D01*
X172197578Y-99186686D01*
X172024386Y-99557811D01*
X172021080Y-99564268D01*
X172020495Y-99571508D01*
X171972535Y-99979162D01*
X171970200Y-99988147D01*
X171970200Y-99991631D01*
X171969337Y-100006355D01*
X171968920Y-100009893D01*
X171970200Y-100019115D01*
X171970200Y-100040483D01*
X171953572Y-100103043D01*
X171908077Y-100149091D01*
X171845722Y-100166474D01*
X171782966Y-100150603D01*
X171736372Y-100105668D01*
X171676820Y-100007157D01*
X171581112Y-99911450D01*
X171548500Y-99854965D01*
X171548500Y-99789743D01*
X171581110Y-99733260D01*
X171677216Y-99637155D01*
X171766227Y-99489913D01*
X171817413Y-99325649D01*
X171823900Y-99254265D01*
X171823899Y-98739736D01*
X171823291Y-98733049D01*
X171817413Y-98668351D01*
X171807919Y-98637883D01*
X171766227Y-98504087D01*
X171677216Y-98356845D01*
X171677215Y-98356844D01*
X171677214Y-98356842D01*
X171555557Y-98235185D01*
X171499165Y-98201095D01*
X171408313Y-98146173D01*
X171357126Y-98130222D01*
X171244048Y-98094986D01*
X171179150Y-98089089D01*
X171172664Y-98088500D01*
X170588920Y-98088500D01*
X170530003Y-98073877D01*
X170484761Y-98033401D01*
X170473215Y-98002194D01*
X170469906Y-98003353D01*
X170405043Y-97817985D01*
X170308110Y-97663717D01*
X170288657Y-97644264D01*
X170257702Y-97593432D01*
X170253532Y-97534063D01*
X170277077Y-97479403D01*
X170323083Y-97441647D01*
X170370141Y-97418984D01*
X170451042Y-97380025D01*
X170550594Y-97287655D01*
X170618496Y-97170045D01*
X170648715Y-97037646D01*
X170638566Y-96902222D01*
X170638565Y-96902219D01*
X170588953Y-96775807D01*
X170504278Y-96669629D01*
X170442010Y-96627175D01*
X170392073Y-96593128D01*
X170392072Y-96593127D01*
X170392071Y-96593127D01*
X170262303Y-96553100D01*
X170262302Y-96553100D01*
X170161488Y-96553100D01*
X170099306Y-96536687D01*
X170053323Y-96491725D01*
X170035520Y-96429927D01*
X170050533Y-96367393D01*
X170094452Y-96320413D01*
X170109469Y-96310976D01*
X170179281Y-96267111D01*
X170307764Y-96138627D01*
X170367804Y-96105120D01*
X170436494Y-96108121D01*
X170441064Y-96109636D01*
X170541528Y-96119900D01*
X171139268Y-96119900D01*
X171139272Y-96119900D01*
X171239736Y-96109636D01*
X171402501Y-96055702D01*
X171548440Y-95965685D01*
X171669685Y-95844440D01*
X171759702Y-95698501D01*
X171813636Y-95535736D01*
X171823900Y-95435272D01*
X171823900Y-94887528D01*
X171813636Y-94787064D01*
X171759702Y-94624299D01*
X171669685Y-94478360D01*
X171666468Y-94475143D01*
X171633856Y-94418660D01*
X171633856Y-94353434D01*
X171666470Y-94296948D01*
X171669291Y-94294126D01*
X171759247Y-94148285D01*
X171813143Y-93985639D01*
X171823400Y-93885239D01*
X171823400Y-93865400D01*
X169857400Y-93865400D01*
X169857400Y-93885239D01*
X169867656Y-93985639D01*
X169921552Y-94148285D01*
X170011511Y-94294131D01*
X170014332Y-94296952D01*
X170046944Y-94353436D01*
X170046944Y-94418658D01*
X170014332Y-94475142D01*
X170011116Y-94478357D01*
X169916174Y-94632280D01*
X169890628Y-94662060D01*
X169857160Y-94682538D01*
X169801209Y-94705717D01*
X169644158Y-94796400D01*
X169635103Y-94803349D01*
X169572507Y-94828594D01*
X169490950Y-94837783D01*
X169318985Y-94897956D01*
X169164717Y-94994889D01*
X169035889Y-95123717D01*
X168938956Y-95277985D01*
X168878783Y-95449950D01*
X168858384Y-95631000D01*
X168878783Y-95812049D01*
X168938956Y-95984014D01*
X169035889Y-96138282D01*
X169164717Y-96267110D01*
X169295410Y-96349230D01*
X169318985Y-96364043D01*
X169490953Y-96424217D01*
X169672000Y-96444616D01*
X169817939Y-96428172D01*
X169879824Y-96436791D01*
X169929962Y-96474085D01*
X169956017Y-96530881D01*
X169951581Y-96593211D01*
X169917744Y-96645744D01*
X169838206Y-96719544D01*
X169770303Y-96837154D01*
X169740085Y-96969552D01*
X169750234Y-97104977D01*
X169781797Y-97185399D01*
X169790060Y-97242022D01*
X169772428Y-97296461D01*
X169732536Y-97337487D01*
X169678614Y-97356639D01*
X169672000Y-97357384D01*
X169605602Y-97364865D01*
X169490950Y-97377783D01*
X169318985Y-97437956D01*
X169164717Y-97534889D01*
X169035889Y-97663717D01*
X168938956Y-97817985D01*
X168878783Y-97989950D01*
X168858384Y-98170999D01*
X168878783Y-98352049D01*
X168938956Y-98524014D01*
X169035889Y-98678282D01*
X169164717Y-98807110D01*
X169273785Y-98875642D01*
X169318985Y-98904043D01*
X169490953Y-98964217D01*
X169535453Y-98969230D01*
X169576012Y-98980916D01*
X169610438Y-99005343D01*
X169824395Y-99219300D01*
X169849405Y-99254954D01*
X169860783Y-99296992D01*
X169863386Y-99325647D01*
X169872332Y-99354355D01*
X169914573Y-99489913D01*
X169955619Y-99557811D01*
X170003585Y-99637157D01*
X170099687Y-99733259D01*
X170132299Y-99789743D01*
X170132299Y-99854965D01*
X170099687Y-99911449D01*
X170003982Y-100007153D01*
X169915033Y-100154293D01*
X169863881Y-100318444D01*
X169857400Y-100389774D01*
X169857400Y-100393000D01*
X170968400Y-100393000D01*
X171031400Y-100409881D01*
X171077519Y-100456000D01*
X171094400Y-100519000D01*
X171094400Y-102630500D01*
X171077519Y-102693500D01*
X171031400Y-102739619D01*
X170968400Y-102756500D01*
X169857400Y-102756500D01*
X169857400Y-102776339D01*
X169867656Y-102876739D01*
X169921552Y-103039385D01*
X170011511Y-103185231D01*
X170014332Y-103188052D01*
X170046944Y-103244536D01*
X170046944Y-103309758D01*
X170014332Y-103366242D01*
X170011117Y-103369456D01*
X170011115Y-103369460D01*
X169921098Y-103515399D01*
X169867164Y-103678164D01*
X169856900Y-103778628D01*
X169856900Y-104326372D01*
X169867164Y-104426836D01*
X169921098Y-104589601D01*
X170011115Y-104735540D01*
X170011117Y-104735543D01*
X170119995Y-104844421D01*
X170147309Y-104885298D01*
X170156900Y-104933516D01*
X170156900Y-105023984D01*
X170147309Y-105072202D01*
X170119995Y-105113079D01*
X170011116Y-105221957D01*
X169952345Y-105317239D01*
X169900245Y-105364385D01*
X169830999Y-105376298D01*
X169672000Y-105358384D01*
X169490950Y-105378783D01*
X169411945Y-105406429D01*
X169370330Y-105413500D01*
X168424481Y-105413500D01*
X168424432Y-105413495D01*
X168383840Y-105413497D01*
X168383699Y-105413469D01*
X168232745Y-105413476D01*
X168036696Y-105439297D01*
X167845693Y-105490486D01*
X167663002Y-105566169D01*
X167491752Y-105665049D01*
X167334882Y-105785431D01*
X167271604Y-105848715D01*
X164111889Y-109008428D01*
X164111800Y-109008501D01*
X164086125Y-109034182D01*
X164045242Y-109061503D01*
X163997014Y-109071095D01*
X163959768Y-109071093D01*
X163959702Y-109071100D01*
X155931082Y-109071100D01*
X155889469Y-109064030D01*
X155883048Y-109061783D01*
X155702000Y-109041384D01*
X155520951Y-109061783D01*
X155514531Y-109064030D01*
X155472918Y-109071100D01*
X154835270Y-109071100D01*
X154793655Y-109064029D01*
X154714649Y-109036383D01*
X154593949Y-109022783D01*
X154533600Y-109015984D01*
X154533599Y-109015984D01*
X154352550Y-109036383D01*
X154180585Y-109096556D01*
X154026317Y-109193489D01*
X153897489Y-109322317D01*
X153800556Y-109476585D01*
X153740383Y-109648550D01*
X153719984Y-109829600D01*
X153740383Y-110010649D01*
X153800556Y-110182614D01*
X153897489Y-110336882D01*
X154026317Y-110465710D01*
X154152548Y-110545026D01*
X154180585Y-110562643D01*
X154352553Y-110622817D01*
X154533600Y-110643216D01*
X154714647Y-110622817D01*
X154793655Y-110595170D01*
X154835270Y-110588100D01*
X155327741Y-110588100D01*
X155369355Y-110595170D01*
X155520953Y-110648217D01*
X155702000Y-110668616D01*
X155883047Y-110648217D01*
X156034644Y-110595170D01*
X156076259Y-110588100D01*
X164000470Y-110588100D01*
X164000535Y-110588113D01*
X164151564Y-110588122D01*
X164151564Y-110588121D01*
X164151566Y-110588122D01*
X164347649Y-110562316D01*
X164538684Y-110511130D01*
X164721402Y-110435441D01*
X164892673Y-110336543D01*
X165049565Y-110216131D01*
X165119481Y-110146200D01*
X165120895Y-110144786D01*
X168269784Y-106995895D01*
X168269806Y-106995879D01*
X168285977Y-106979708D01*
X168298275Y-106967408D01*
X168339155Y-106940092D01*
X168387375Y-106930500D01*
X169370330Y-106930500D01*
X169411944Y-106937570D01*
X169490953Y-106965217D01*
X169672000Y-106985616D01*
X169724429Y-106979708D01*
X169779837Y-106985879D01*
X169827162Y-107015358D01*
X169857133Y-107062374D01*
X169863880Y-107117720D01*
X169857400Y-107181158D01*
X169857400Y-107201000D01*
X170968400Y-107201000D01*
X171031400Y-107217881D01*
X171077519Y-107264000D01*
X171094400Y-107327000D01*
X171094400Y-107583000D01*
X171077519Y-107646000D01*
X171031400Y-107692119D01*
X170968400Y-107709000D01*
X169857400Y-107709000D01*
X169857400Y-107728839D01*
X169867656Y-107829239D01*
X169921552Y-107991885D01*
X170011511Y-108137731D01*
X170132668Y-108258888D01*
X170259656Y-108337215D01*
X170303533Y-108383049D01*
X170319509Y-108444455D01*
X170303533Y-108505862D01*
X170259657Y-108551696D01*
X170132357Y-108630216D01*
X170011117Y-108751456D01*
X169972490Y-108814080D01*
X169921098Y-108897399D01*
X169867164Y-109060164D01*
X169857854Y-109151298D01*
X169856900Y-109160632D01*
X169856900Y-109230005D01*
X169847309Y-109278223D01*
X169819995Y-109319101D01*
X168467437Y-110671656D01*
X168433013Y-110696081D01*
X168392453Y-110707767D01*
X168347953Y-110712782D01*
X168175985Y-110772956D01*
X168021717Y-110869889D01*
X167892889Y-110998717D01*
X167795956Y-111152985D01*
X167735783Y-111324950D01*
X167715384Y-111506000D01*
X167735783Y-111687049D01*
X167795956Y-111859014D01*
X167892889Y-112013282D01*
X167927995Y-112048387D01*
X167957830Y-112095867D01*
X167964109Y-112151590D01*
X167945589Y-112204518D01*
X167872156Y-112321386D01*
X167811983Y-112493350D01*
X167791584Y-112674399D01*
X167811983Y-112855449D01*
X167872156Y-113027414D01*
X167969089Y-113181682D01*
X168083912Y-113296505D01*
X168116524Y-113352989D01*
X168116524Y-113418211D01*
X168083912Y-113474695D01*
X167969089Y-113589517D01*
X167872156Y-113743785D01*
X167811983Y-113915750D01*
X167791584Y-114096800D01*
X167811983Y-114277849D01*
X167872156Y-114449814D01*
X167969089Y-114604082D01*
X168033112Y-114668105D01*
X168065724Y-114724589D01*
X168065724Y-114789811D01*
X168033112Y-114846295D01*
X167969089Y-114910317D01*
X167872156Y-115064585D01*
X167811983Y-115236550D01*
X167791584Y-115417599D01*
X167811983Y-115598649D01*
X167872156Y-115770614D01*
X167969089Y-115924882D01*
X168097917Y-116053710D01*
X168179831Y-116105180D01*
X168252185Y-116150643D01*
X168424153Y-116210817D01*
X168468653Y-116215830D01*
X168509212Y-116227516D01*
X168543635Y-116251940D01*
X168814762Y-116523067D01*
X169050597Y-116758902D01*
X169050914Y-116759182D01*
X169081094Y-116789364D01*
X169081097Y-116789367D01*
X169224971Y-116899775D01*
X169224975Y-116899777D01*
X169224976Y-116899778D01*
X169382021Y-116990457D01*
X169382022Y-116990457D01*
X169382025Y-116990459D01*
X169549573Y-117059868D01*
X169724746Y-117106815D01*
X169848177Y-117123071D01*
X169904578Y-117130500D01*
X169908984Y-117130500D01*
X169957202Y-117140091D01*
X169998079Y-117167405D01*
X170106956Y-117276282D01*
X170106958Y-117276283D01*
X170106960Y-117276285D01*
X170252899Y-117366302D01*
X170415664Y-117420236D01*
X170516128Y-117430500D01*
X171113868Y-117430500D01*
X171113872Y-117430500D01*
X171214336Y-117420236D01*
X171377101Y-117366302D01*
X171523040Y-117276285D01*
X171644285Y-117155040D01*
X171734302Y-117009101D01*
X171788236Y-116846336D01*
X171798500Y-116745872D01*
X171798500Y-116198128D01*
X171788236Y-116097664D01*
X171734302Y-115934899D01*
X171644285Y-115788960D01*
X171641421Y-115786096D01*
X171608809Y-115729613D01*
X171608809Y-115664387D01*
X171641421Y-115607903D01*
X171644285Y-115605040D01*
X171734302Y-115459101D01*
X171788236Y-115296336D01*
X171798500Y-115195872D01*
X171798500Y-114648128D01*
X171788236Y-114547664D01*
X171734302Y-114384899D01*
X171644285Y-114238960D01*
X171644283Y-114238958D01*
X171644282Y-114238956D01*
X171523043Y-114117717D01*
X171495320Y-114100617D01*
X171377101Y-114027698D01*
X171214336Y-113973764D01*
X171113872Y-113963500D01*
X170516128Y-113963500D01*
X170415664Y-113973764D01*
X170252899Y-114027698D01*
X170213112Y-114052239D01*
X170106956Y-114117717D01*
X169998079Y-114226595D01*
X169957202Y-114253909D01*
X169908984Y-114263500D01*
X169724353Y-114263500D01*
X169707884Y-114262418D01*
X169704302Y-114261947D01*
X169703779Y-114261878D01*
X169643568Y-114236932D01*
X169640111Y-114234280D01*
X169627708Y-114223403D01*
X169622821Y-114218516D01*
X169569542Y-114165232D01*
X169569516Y-114165211D01*
X169439542Y-114035237D01*
X169415114Y-114000810D01*
X169403430Y-113960251D01*
X169398417Y-113915753D01*
X169338243Y-113743785D01*
X169261108Y-113621027D01*
X169241310Y-113589517D01*
X169126488Y-113474695D01*
X169093876Y-113418211D01*
X169093876Y-113352989D01*
X169126488Y-113296505D01*
X169241310Y-113181682D01*
X169257369Y-113156125D01*
X169338243Y-113027415D01*
X169358490Y-112969552D01*
X169740085Y-112969552D01*
X169750234Y-113104980D01*
X169799846Y-113231392D01*
X169857558Y-113303760D01*
X169884521Y-113337570D01*
X169996727Y-113414072D01*
X170010146Y-113418211D01*
X170126497Y-113454100D01*
X170126498Y-113454100D01*
X170228160Y-113454100D01*
X170228162Y-113454100D01*
X170328687Y-113438948D01*
X170451042Y-113380025D01*
X170550594Y-113287655D01*
X170618496Y-113170045D01*
X170648715Y-113037646D01*
X170638566Y-112902222D01*
X170637498Y-112899500D01*
X170588953Y-112775807D01*
X170504278Y-112669629D01*
X170442007Y-112627173D01*
X170392073Y-112593128D01*
X170392072Y-112593127D01*
X170392071Y-112593127D01*
X170262303Y-112553100D01*
X170262302Y-112553100D01*
X170160638Y-112553100D01*
X170120428Y-112559160D01*
X170060110Y-112568252D01*
X169937760Y-112627173D01*
X169937757Y-112627175D01*
X169937758Y-112627175D01*
X169838206Y-112719545D01*
X169838204Y-112719547D01*
X169838205Y-112719547D01*
X169770303Y-112837154D01*
X169740085Y-112969552D01*
X169358490Y-112969552D01*
X169398417Y-112855447D01*
X169403431Y-112810943D01*
X169415116Y-112770385D01*
X169439540Y-112735962D01*
X170237167Y-111938335D01*
X170297202Y-111904828D01*
X170365892Y-111907827D01*
X170441064Y-111932736D01*
X170541528Y-111943000D01*
X171139268Y-111943000D01*
X171139272Y-111943000D01*
X171239736Y-111932736D01*
X171402501Y-111878802D01*
X171548440Y-111788785D01*
X171669685Y-111667540D01*
X171759702Y-111521601D01*
X171813636Y-111358836D01*
X171823900Y-111258372D01*
X171823900Y-110710628D01*
X171813636Y-110610164D01*
X171792487Y-110546341D01*
X171790708Y-110520177D01*
X171776050Y-110496736D01*
X171759702Y-110447399D01*
X171669685Y-110301460D01*
X171666821Y-110298596D01*
X171634209Y-110242113D01*
X171634209Y-110176887D01*
X171666821Y-110120403D01*
X171669685Y-110117540D01*
X171742795Y-109999010D01*
X171787017Y-109956050D01*
X171846331Y-109939214D01*
X171906532Y-109952537D01*
X171953204Y-109992827D01*
X171975171Y-110050438D01*
X172020495Y-110435690D01*
X172021235Y-110444842D01*
X172021350Y-110447449D01*
X172026271Y-110453427D01*
X172197574Y-110820504D01*
X172200628Y-110827836D01*
X172206288Y-110833473D01*
X172500534Y-111152239D01*
X172507729Y-111161209D01*
X172517804Y-111166738D01*
X172858373Y-111385675D01*
X172870337Y-111394401D01*
X173264103Y-111718678D01*
X173288353Y-111745321D01*
X173304073Y-111777737D01*
X173462869Y-112276809D01*
X173468800Y-112315013D01*
X173468800Y-116825044D01*
X173465924Y-116851810D01*
X173347317Y-117397395D01*
X173330725Y-117437912D01*
X173054395Y-117875436D01*
X173019013Y-117912142D01*
X172585104Y-118209028D01*
X172535543Y-118229176D01*
X171992971Y-118323537D01*
X171971382Y-118325400D01*
X134882665Y-118325400D01*
X134867036Y-118324427D01*
X134487022Y-118276924D01*
X134455856Y-118268885D01*
X134102076Y-118127373D01*
X134083690Y-118118216D01*
X133916226Y-118016988D01*
X133085299Y-117514711D01*
X141993500Y-117514711D01*
X142001314Y-117541322D01*
X142005135Y-117558889D01*
X142009081Y-117586334D01*
X142020602Y-117611565D01*
X142026881Y-117628400D01*
X142034695Y-117655011D01*
X142049688Y-117678341D01*
X142058301Y-117694113D01*
X142069824Y-117719343D01*
X142087985Y-117740302D01*
X142098757Y-117754692D01*
X142113750Y-117778021D01*
X142134713Y-117796186D01*
X142147412Y-117808885D01*
X142165579Y-117829850D01*
X142180410Y-117839381D01*
X142188908Y-117844843D01*
X142203298Y-117855615D01*
X142212032Y-117863183D01*
X142224257Y-117873776D01*
X142249486Y-117885298D01*
X142265259Y-117893911D01*
X142288589Y-117908904D01*
X142315201Y-117916718D01*
X142332039Y-117922998D01*
X142357266Y-117934519D01*
X142384716Y-117938465D01*
X142402273Y-117942284D01*
X142428889Y-117950100D01*
X142465632Y-117950100D01*
X142575111Y-117950100D01*
X143428889Y-117950100D01*
X143538368Y-117950100D01*
X143575109Y-117950100D01*
X143575111Y-117950100D01*
X143601723Y-117942284D01*
X143619285Y-117938464D01*
X143646734Y-117934519D01*
X143671965Y-117922996D01*
X143688802Y-117916717D01*
X143715408Y-117908905D01*
X143715408Y-117908904D01*
X143715411Y-117908904D01*
X143738753Y-117893902D01*
X143754501Y-117885303D01*
X143779743Y-117873776D01*
X143800701Y-117855614D01*
X143815085Y-117844846D01*
X143838421Y-117829850D01*
X143856581Y-117808891D01*
X143869292Y-117796181D01*
X143869293Y-117796180D01*
X143890250Y-117778021D01*
X143905246Y-117754685D01*
X143916014Y-117740301D01*
X143934176Y-117719343D01*
X143945703Y-117694101D01*
X143954302Y-117678353D01*
X143969304Y-117655011D01*
X143977118Y-117628400D01*
X143983396Y-117611565D01*
X143994919Y-117586334D01*
X143998864Y-117558885D01*
X144002685Y-117541322D01*
X144010500Y-117514711D01*
X144010500Y-117368489D01*
X144010500Y-116405232D01*
X144010500Y-116368489D01*
X144002684Y-116341873D01*
X143998864Y-116324311D01*
X143994919Y-116296866D01*
X143983397Y-116271636D01*
X143977117Y-116254798D01*
X143976279Y-116251943D01*
X143969304Y-116228189D01*
X143954311Y-116204859D01*
X143945698Y-116189086D01*
X143934176Y-116163857D01*
X143916015Y-116142898D01*
X143905243Y-116128508D01*
X143899781Y-116120010D01*
X143890250Y-116105179D01*
X143869285Y-116087012D01*
X143856586Y-116074313D01*
X143838421Y-116053350D01*
X143815092Y-116038357D01*
X143800702Y-116027585D01*
X143779743Y-116009424D01*
X143754513Y-115997901D01*
X143738741Y-115989288D01*
X143715411Y-115974295D01*
X143688800Y-115966481D01*
X143671965Y-115960202D01*
X143646734Y-115948681D01*
X143619289Y-115944735D01*
X143601724Y-115940914D01*
X143575111Y-115933100D01*
X143538368Y-115933100D01*
X142575111Y-115933100D01*
X142428889Y-115933100D01*
X142402275Y-115940914D01*
X142384714Y-115944734D01*
X142357263Y-115948681D01*
X142332036Y-115960201D01*
X142315204Y-115966480D01*
X142288585Y-115974297D01*
X142265252Y-115989291D01*
X142249486Y-115997901D01*
X142224257Y-116009424D01*
X142203291Y-116027590D01*
X142188907Y-116038357D01*
X142165577Y-116053350D01*
X142147415Y-116074310D01*
X142134710Y-116087015D01*
X142113750Y-116105177D01*
X142098757Y-116128507D01*
X142087990Y-116142891D01*
X142069824Y-116163857D01*
X142058301Y-116189086D01*
X142049691Y-116204852D01*
X142034697Y-116228185D01*
X142026880Y-116254804D01*
X142020601Y-116271636D01*
X142009081Y-116296863D01*
X142005134Y-116324314D01*
X142001314Y-116341875D01*
X142001311Y-116341886D01*
X141993500Y-116368489D01*
X141993500Y-116405232D01*
X141993500Y-117368489D01*
X141993500Y-117514711D01*
X133085299Y-117514711D01*
X130789261Y-116126807D01*
X130747916Y-116086268D01*
X130729068Y-116031519D01*
X130736695Y-115974126D01*
X130887966Y-115577038D01*
X130889106Y-115575198D01*
X130896730Y-115554255D01*
X130896732Y-115554255D01*
X130898307Y-115549926D01*
X130898877Y-115548397D01*
X130899470Y-115546844D01*
X130899469Y-115546838D01*
X130899506Y-115546744D01*
X130899433Y-115545062D01*
X130899363Y-115543148D01*
X130898609Y-115516742D01*
X130898109Y-115514621D01*
X130875315Y-114990397D01*
X130875507Y-114989161D01*
X130874264Y-114965179D01*
X130874265Y-114965178D01*
X130873994Y-114959964D01*
X130873970Y-114959460D01*
X130873873Y-114957202D01*
X130873871Y-114957198D01*
X130873869Y-114957143D01*
X130872999Y-114955315D01*
X130872557Y-114954377D01*
X130860725Y-114928992D01*
X130859982Y-114927981D01*
X130619373Y-114422701D01*
X130618254Y-114420285D01*
X130617699Y-114419053D01*
X130616731Y-114418180D01*
X130614758Y-114416362D01*
X130192945Y-114019361D01*
X130183732Y-114009029D01*
X130171269Y-114003006D01*
X126104586Y-111578152D01*
X126093964Y-111570249D01*
X126089581Y-111568168D01*
X126076729Y-111564929D01*
X125532374Y-111366981D01*
X125528851Y-111365698D01*
X125528850Y-111365698D01*
X125528845Y-111365696D01*
X125526348Y-111365805D01*
X125526348Y-111365806D01*
X124972232Y-111389899D01*
X124971013Y-111389714D01*
X124942469Y-111391188D01*
X124941479Y-111391236D01*
X124939346Y-111391329D01*
X124937415Y-111392248D01*
X124936542Y-111392658D01*
X124911330Y-111404413D01*
X124910337Y-111405141D01*
X124430211Y-111633773D01*
X124428674Y-111634174D01*
X124404009Y-111646243D01*
X124402817Y-111646819D01*
X124401087Y-111647643D01*
X124399780Y-111649123D01*
X124398942Y-111650062D01*
X124380418Y-111670618D01*
X124379623Y-111671968D01*
X124094952Y-111994594D01*
X124047802Y-112028003D01*
X123990696Y-112036850D01*
X123935647Y-112019274D01*
X121556096Y-110591544D01*
X121510965Y-110545026D01*
X121494928Y-110482228D01*
X121512229Y-110419767D01*
X121558289Y-110374169D01*
X121620922Y-110357500D01*
X121727550Y-110357500D01*
X121875701Y-110342908D01*
X121895569Y-110336881D01*
X122065804Y-110285241D01*
X122241004Y-110191595D01*
X122241005Y-110191593D01*
X122241007Y-110191593D01*
X122394568Y-110065568D01*
X122520593Y-109912007D01*
X122540502Y-109874760D01*
X122614241Y-109736804D01*
X122671908Y-109546701D01*
X122691380Y-109349000D01*
X122671908Y-109151299D01*
X122614241Y-108961196D01*
X122520595Y-108785996D01*
X122520593Y-108785992D01*
X122394568Y-108632431D01*
X122241007Y-108506406D01*
X122065802Y-108412758D01*
X121875701Y-108355091D01*
X121727550Y-108340500D01*
X121727547Y-108340500D01*
X121028453Y-108340500D01*
X121028450Y-108340500D01*
X120880298Y-108355091D01*
X120690197Y-108412758D01*
X120514992Y-108506406D01*
X120361431Y-108632431D01*
X120235406Y-108785993D01*
X120165258Y-108917230D01*
X120124984Y-108962029D01*
X120068515Y-108983011D01*
X120008760Y-108975380D01*
X119959377Y-108940880D01*
X119931654Y-108887398D01*
X119904718Y-108775804D01*
X119901200Y-108746240D01*
X119901200Y-105995355D01*
X123903493Y-105995355D01*
X123903494Y-106141474D01*
X123928025Y-106327783D01*
X123976662Y-106509289D01*
X124048574Y-106682895D01*
X124066821Y-106714499D01*
X124142534Y-106845635D01*
X124256930Y-106994715D01*
X124277574Y-107015358D01*
X124290080Y-107027864D01*
X124290101Y-107027887D01*
X124605935Y-107343721D01*
X124637008Y-107394927D01*
X124640926Y-107454695D01*
X124616803Y-107509520D01*
X124525301Y-107628767D01*
X124467312Y-107768764D01*
X124447534Y-107919000D01*
X124467312Y-108069235D01*
X124525302Y-108209234D01*
X124573243Y-108271712D01*
X124596219Y-108320809D01*
X124596441Y-108375016D01*
X124573868Y-108424299D01*
X124532677Y-108459538D01*
X124444993Y-108506406D01*
X124291431Y-108632431D01*
X124165406Y-108785992D01*
X124071758Y-108961197D01*
X124014091Y-109151298D01*
X123994619Y-109349000D01*
X124014091Y-109546701D01*
X124071758Y-109736802D01*
X124165406Y-109912007D01*
X124291431Y-110065568D01*
X124444992Y-110191593D01*
X124444996Y-110191595D01*
X124620196Y-110285241D01*
X124715247Y-110314074D01*
X124810298Y-110342908D01*
X124958450Y-110357500D01*
X124958453Y-110357500D01*
X126157547Y-110357500D01*
X126157550Y-110357500D01*
X126305701Y-110342908D01*
X126325569Y-110336881D01*
X126495804Y-110285241D01*
X126671004Y-110191595D01*
X126671005Y-110191593D01*
X126671007Y-110191593D01*
X126797567Y-110087729D01*
X126862076Y-110060076D01*
X126931372Y-110071225D01*
X126983952Y-110117718D01*
X127003500Y-110185128D01*
X127003500Y-110467519D01*
X127003495Y-110467567D01*
X127003497Y-110508159D01*
X127003469Y-110508303D01*
X127003476Y-110659254D01*
X127029297Y-110855303D01*
X127080486Y-111046306D01*
X127156169Y-111228997D01*
X127255049Y-111400247D01*
X127375431Y-111557118D01*
X127442277Y-111623958D01*
X127442290Y-111623971D01*
X127505366Y-111687047D01*
X127550380Y-111732061D01*
X127550713Y-111732357D01*
X127583898Y-111765545D01*
X127740772Y-111885928D01*
X127740776Y-111885930D01*
X127740777Y-111885931D01*
X127912010Y-111984803D01*
X127912012Y-111984804D01*
X127912016Y-111984806D01*
X128094701Y-112060487D01*
X128285701Y-112111675D01*
X128335163Y-112118189D01*
X128481784Y-112137500D01*
X128580620Y-112137500D01*
X128660341Y-112137504D01*
X128660343Y-112137503D01*
X128673432Y-112137504D01*
X128673481Y-112137500D01*
X129314500Y-112137500D01*
X129377500Y-112154381D01*
X129423619Y-112200500D01*
X129440500Y-112263499D01*
X129440500Y-112441540D01*
X129446711Y-112502335D01*
X129451113Y-112545426D01*
X129506885Y-112713738D01*
X129590989Y-112850092D01*
X129599972Y-112864655D01*
X129725344Y-112990027D01*
X129725346Y-112990028D01*
X129725348Y-112990030D01*
X129876262Y-113083115D01*
X130044574Y-113138887D01*
X130148455Y-113149500D01*
X130749544Y-113149499D01*
X130853426Y-113138887D01*
X131021738Y-113083115D01*
X131172652Y-112990030D01*
X131298030Y-112864652D01*
X131391115Y-112713738D01*
X131446887Y-112545426D01*
X131457500Y-112441545D01*
X131457499Y-111840456D01*
X131446887Y-111736574D01*
X131391115Y-111568262D01*
X131298030Y-111417348D01*
X131298028Y-111417346D01*
X131298027Y-111417344D01*
X131172655Y-111291972D01*
X131169892Y-111290268D01*
X131069134Y-111228119D01*
X131029015Y-111188579D01*
X131010134Y-111135506D01*
X131016267Y-111079511D01*
X131046185Y-111031785D01*
X131126816Y-110951155D01*
X131215827Y-110803913D01*
X131227266Y-110767203D01*
X131256007Y-110718121D01*
X131303406Y-110686679D01*
X131359804Y-110679285D01*
X131413707Y-110697448D01*
X131518114Y-110761847D01*
X131680760Y-110815743D01*
X131781161Y-110826000D01*
X131826000Y-110826000D01*
X131826000Y-109740000D01*
X131842881Y-109677000D01*
X131889000Y-109630881D01*
X131952000Y-109614000D01*
X132208000Y-109614000D01*
X132271000Y-109630881D01*
X132317119Y-109677000D01*
X132334000Y-109740000D01*
X132334000Y-110826000D01*
X132378839Y-110826000D01*
X132479239Y-110815743D01*
X132641884Y-110761847D01*
X132717748Y-110715054D01*
X132771089Y-110696947D01*
X132826990Y-110703894D01*
X132874277Y-110734505D01*
X132903499Y-110782661D01*
X132950698Y-110925101D01*
X132950699Y-110925103D01*
X132960106Y-110940354D01*
X132978835Y-111003752D01*
X132962889Y-111067906D01*
X132916657Y-111115158D01*
X132852866Y-111132500D01*
X132648459Y-111132500D01*
X132544573Y-111143113D01*
X132376262Y-111198885D01*
X132225344Y-111291972D01*
X132099972Y-111417344D01*
X132073962Y-111459513D01*
X132006885Y-111568262D01*
X131967524Y-111687049D01*
X131951113Y-111736574D01*
X131940500Y-111840459D01*
X131940500Y-112441540D01*
X131946711Y-112502335D01*
X131951113Y-112545426D01*
X132006885Y-112713738D01*
X132090989Y-112850092D01*
X132099972Y-112864655D01*
X132225344Y-112990027D01*
X132225346Y-112990028D01*
X132225348Y-112990030D01*
X132376262Y-113083115D01*
X132544574Y-113138887D01*
X132648455Y-113149500D01*
X133249544Y-113149499D01*
X133353426Y-113138887D01*
X133521738Y-113083115D01*
X133672652Y-112990030D01*
X133672655Y-112990026D01*
X133675406Y-112987277D01*
X133725565Y-112956539D01*
X133784212Y-112951923D01*
X133838562Y-112974436D01*
X133876768Y-113019169D01*
X133890501Y-113076372D01*
X133890501Y-113127212D01*
X133900938Y-113229381D01*
X133955791Y-113394920D01*
X134012587Y-113487000D01*
X134047344Y-113543349D01*
X134079900Y-113575905D01*
X134112512Y-113632389D01*
X134112512Y-113697611D01*
X134079900Y-113754095D01*
X134047344Y-113786650D01*
X133955791Y-113935080D01*
X133900938Y-114100617D01*
X133900937Y-114100619D01*
X133900938Y-114100619D01*
X133893340Y-114174994D01*
X133890500Y-114202791D01*
X133890500Y-114877208D01*
X133899331Y-114963651D01*
X133900938Y-114979381D01*
X133955791Y-115144920D01*
X134047342Y-115293346D01*
X134047344Y-115293349D01*
X134170650Y-115416655D01*
X134170652Y-115416656D01*
X134170654Y-115416658D01*
X134319080Y-115508209D01*
X134484619Y-115563062D01*
X134586787Y-115573500D01*
X135161212Y-115573499D01*
X135263381Y-115563062D01*
X135428920Y-115508209D01*
X135475354Y-115479567D01*
X135538751Y-115460839D01*
X135602906Y-115476785D01*
X135650158Y-115523017D01*
X135667500Y-115586809D01*
X135667500Y-115995872D01*
X135677764Y-116096336D01*
X135731698Y-116259101D01*
X135821715Y-116405040D01*
X135821717Y-116405043D01*
X135942956Y-116526282D01*
X135942958Y-116526283D01*
X135942960Y-116526285D01*
X136088899Y-116616302D01*
X136251664Y-116670236D01*
X136352128Y-116680500D01*
X136899868Y-116680500D01*
X136899872Y-116680500D01*
X137000336Y-116670236D01*
X137163101Y-116616302D01*
X137309040Y-116526285D01*
X137312254Y-116523070D01*
X137368735Y-116490457D01*
X137433960Y-116490455D01*
X137490447Y-116523067D01*
X137493268Y-116525888D01*
X137639114Y-116615847D01*
X137801760Y-116669743D01*
X137902161Y-116680000D01*
X137922000Y-116680000D01*
X137922000Y-115951000D01*
X138430000Y-115951000D01*
X138430000Y-116680000D01*
X138449839Y-116680000D01*
X138550239Y-116669743D01*
X138712885Y-116615847D01*
X138858731Y-116525888D01*
X138979888Y-116404731D01*
X139069847Y-116258885D01*
X139123743Y-116096239D01*
X139134000Y-115995839D01*
X139134000Y-115951000D01*
X138430000Y-115951000D01*
X137922000Y-115951000D01*
X137922000Y-115569000D01*
X137938881Y-115506000D01*
X137985000Y-115459881D01*
X138048000Y-115443000D01*
X139134000Y-115443000D01*
X139134000Y-115398161D01*
X139123743Y-115297760D01*
X139069847Y-115135114D01*
X138972159Y-114976737D01*
X138972528Y-114976509D01*
X138947293Y-114932801D01*
X138947294Y-114867578D01*
X138978000Y-114814394D01*
X138978000Y-114234000D01*
X138114000Y-114234000D01*
X138114000Y-114353589D01*
X138120505Y-114414093D01*
X138168945Y-114543968D01*
X138175907Y-114603703D01*
X138154388Y-114659861D01*
X138109291Y-114699648D01*
X138050889Y-114714000D01*
X137902161Y-114714000D01*
X137801760Y-114724256D01*
X137639115Y-114778152D01*
X137562647Y-114825319D01*
X137499249Y-114844048D01*
X137435094Y-114828102D01*
X137387842Y-114781870D01*
X137370500Y-114718078D01*
X137370500Y-114618441D01*
X137371830Y-114600180D01*
X137372067Y-114598556D01*
X137375341Y-114576211D01*
X137370979Y-114526353D01*
X137370500Y-114515372D01*
X137370500Y-113929815D01*
X137380673Y-113880216D01*
X137409549Y-113838625D01*
X137452466Y-113811760D01*
X137468204Y-113805889D01*
X137585261Y-113718261D01*
X137607466Y-113688599D01*
X137672889Y-113601204D01*
X137723989Y-113464201D01*
X137730500Y-113403638D01*
X137730500Y-112656362D01*
X137723989Y-112595799D01*
X137672889Y-112458796D01*
X137669028Y-112453638D01*
X137585261Y-112341738D01*
X137468205Y-112254111D01*
X137399702Y-112228561D01*
X137331201Y-112203011D01*
X137270638Y-112196500D01*
X135953362Y-112196500D01*
X135953359Y-112196500D01*
X135887833Y-112203544D01*
X135818936Y-112191419D01*
X135767126Y-112144413D01*
X135700658Y-112036653D01*
X135577349Y-111913344D01*
X135568405Y-111907827D01*
X135428920Y-111821791D01*
X135346150Y-111794364D01*
X135263382Y-111766938D01*
X135242947Y-111764850D01*
X135161213Y-111756500D01*
X135161209Y-111756500D01*
X134956541Y-111756500D01*
X134916038Y-111749812D01*
X134879834Y-111730460D01*
X134797841Y-111667540D01*
X134754228Y-111634072D01*
X134640091Y-111568168D01*
X134582983Y-111535193D01*
X134445170Y-111478101D01*
X134391509Y-111435826D01*
X134367797Y-111371760D01*
X134381004Y-111304735D01*
X134427244Y-111254457D01*
X134528040Y-111192285D01*
X134531254Y-111189070D01*
X134587735Y-111156457D01*
X134652960Y-111156455D01*
X134709447Y-111189067D01*
X134712268Y-111191888D01*
X134858114Y-111281847D01*
X135020760Y-111335743D01*
X135121161Y-111346000D01*
X135141000Y-111346000D01*
X135141000Y-110617000D01*
X135649000Y-110617000D01*
X135649000Y-111346000D01*
X135668839Y-111346000D01*
X135769239Y-111335743D01*
X135931885Y-111281847D01*
X136077731Y-111191888D01*
X136198888Y-111070731D01*
X136288847Y-110924885D01*
X136342743Y-110762239D01*
X136353000Y-110661839D01*
X136353000Y-110617000D01*
X135649000Y-110617000D01*
X135141000Y-110617000D01*
X135141000Y-110235000D01*
X135157881Y-110172000D01*
X135204000Y-110125881D01*
X135267000Y-110109000D01*
X136353000Y-110109000D01*
X136353000Y-110064161D01*
X136342743Y-109963761D01*
X136285738Y-109791733D01*
X136280808Y-109732933D01*
X136303191Y-109678336D01*
X136347976Y-109639917D01*
X136405342Y-109626100D01*
X136590045Y-109626100D01*
X136710354Y-109610261D01*
X136743246Y-109610261D01*
X136863555Y-109626100D01*
X136863556Y-109626100D01*
X137090044Y-109626100D01*
X137090045Y-109626100D01*
X137210354Y-109610261D01*
X137243246Y-109610261D01*
X137363555Y-109626100D01*
X137363556Y-109626100D01*
X137590044Y-109626100D01*
X137590045Y-109626100D01*
X137710354Y-109610261D01*
X137743246Y-109610261D01*
X137863555Y-109626100D01*
X137863556Y-109626100D01*
X138090044Y-109626100D01*
X138090045Y-109626100D01*
X138210354Y-109610261D01*
X138243246Y-109610261D01*
X138363555Y-109626100D01*
X138363556Y-109626100D01*
X138590044Y-109626100D01*
X138590045Y-109626100D01*
X138710354Y-109610261D01*
X138743246Y-109610261D01*
X138863555Y-109626100D01*
X138863556Y-109626100D01*
X139090044Y-109626100D01*
X139090045Y-109626100D01*
X139210354Y-109610261D01*
X139243246Y-109610261D01*
X139363555Y-109626100D01*
X139438658Y-109626100D01*
X139496024Y-109639917D01*
X139540809Y-109678336D01*
X139563192Y-109732933D01*
X139558262Y-109791733D01*
X139501256Y-109963761D01*
X139491000Y-110064161D01*
X139491000Y-110109000D01*
X140577000Y-110109000D01*
X140640000Y-110125881D01*
X140686119Y-110172000D01*
X140703000Y-110235000D01*
X140703000Y-110491000D01*
X140686119Y-110554000D01*
X140640000Y-110600119D01*
X140577000Y-110617000D01*
X139491000Y-110617000D01*
X139491000Y-110661839D01*
X139501256Y-110762239D01*
X139555152Y-110924885D01*
X139635009Y-111054353D01*
X139653738Y-111117752D01*
X139637792Y-111181907D01*
X139591560Y-111229158D01*
X139527768Y-111246500D01*
X138573362Y-111246500D01*
X138512799Y-111253011D01*
X138375794Y-111304111D01*
X138258738Y-111391738D01*
X138171111Y-111508794D01*
X138124385Y-111634071D01*
X138120011Y-111645799D01*
X138113500Y-111706362D01*
X138113500Y-112453638D01*
X138120011Y-112514201D01*
X138134520Y-112553100D01*
X138171111Y-112651205D01*
X138258738Y-112768261D01*
X138375794Y-112855888D01*
X138375795Y-112855888D01*
X138375796Y-112855889D01*
X138512799Y-112906989D01*
X138512804Y-112906989D01*
X138526801Y-112912210D01*
X138576805Y-112946402D01*
X138605074Y-112999977D01*
X138605075Y-113060554D01*
X138576806Y-113114130D01*
X138526802Y-113148322D01*
X138376036Y-113204554D01*
X138259095Y-113292095D01*
X138171554Y-113409037D01*
X138120505Y-113545906D01*
X138114000Y-113606411D01*
X138114000Y-113726000D01*
X139360000Y-113726000D01*
X139423000Y-113742881D01*
X139469119Y-113789000D01*
X139486000Y-113852000D01*
X139486000Y-114813000D01*
X139890589Y-114813000D01*
X139951093Y-114806494D01*
X140087962Y-114755445D01*
X140204904Y-114667904D01*
X140292445Y-114550962D01*
X140303497Y-114521332D01*
X140339040Y-114470139D01*
X140394769Y-114442243D01*
X140457051Y-114444467D01*
X140510648Y-114476268D01*
X140516268Y-114481888D01*
X140662114Y-114571847D01*
X140824760Y-114625743D01*
X140925161Y-114636000D01*
X140970000Y-114636000D01*
X140970000Y-113932000D01*
X141478000Y-113932000D01*
X141478000Y-114636000D01*
X141522839Y-114636000D01*
X141623239Y-114625743D01*
X141785885Y-114571847D01*
X141931731Y-114481888D01*
X142023905Y-114389715D01*
X142080389Y-114357103D01*
X142145611Y-114357103D01*
X142202095Y-114389715D01*
X142294268Y-114481888D01*
X142440114Y-114571847D01*
X142602760Y-114625743D01*
X142703161Y-114636000D01*
X142748000Y-114636000D01*
X142748000Y-113932000D01*
X143256000Y-113932000D01*
X143256000Y-114636000D01*
X143300839Y-114636000D01*
X143401239Y-114625743D01*
X143512121Y-114589000D01*
X145512800Y-114589000D01*
X146266800Y-114589000D01*
X146266800Y-113610000D01*
X145972211Y-113610000D01*
X145911706Y-113616505D01*
X145774837Y-113667554D01*
X145657895Y-113755095D01*
X145570354Y-113872037D01*
X145519305Y-114008906D01*
X145512800Y-114069411D01*
X145512800Y-114589000D01*
X143512121Y-114589000D01*
X143563885Y-114571847D01*
X143709731Y-114481888D01*
X143830888Y-114360731D01*
X143920847Y-114214885D01*
X143974743Y-114052239D01*
X143985000Y-113951839D01*
X143985000Y-113932000D01*
X143256000Y-113932000D01*
X142748000Y-113932000D01*
X141478000Y-113932000D01*
X140970000Y-113932000D01*
X140970000Y-113550000D01*
X140986881Y-113487000D01*
X141033000Y-113440881D01*
X141096000Y-113424000D01*
X143985000Y-113424000D01*
X143985000Y-113404161D01*
X143974743Y-113303760D01*
X143920847Y-113141114D01*
X143830888Y-112995268D01*
X143828067Y-112992447D01*
X143795455Y-112935960D01*
X143795457Y-112870735D01*
X143828070Y-112814254D01*
X143831285Y-112811040D01*
X143921302Y-112665101D01*
X143975236Y-112502336D01*
X143985500Y-112401872D01*
X143985500Y-111854128D01*
X143975236Y-111753664D01*
X143921302Y-111590899D01*
X143831285Y-111444960D01*
X143831283Y-111444958D01*
X143831282Y-111444956D01*
X143808421Y-111422095D01*
X143777683Y-111371936D01*
X143773067Y-111313289D01*
X143795580Y-111258939D01*
X143840313Y-111220733D01*
X143897516Y-111207000D01*
X144062839Y-111207000D01*
X144163239Y-111196743D01*
X144325885Y-111142847D01*
X144471731Y-111052888D01*
X144592888Y-110931731D01*
X144682847Y-110785885D01*
X144736743Y-110623239D01*
X144747000Y-110522839D01*
X144747000Y-110503000D01*
X143636000Y-110503000D01*
X143573000Y-110486119D01*
X143526881Y-110440000D01*
X143510000Y-110377000D01*
X143510000Y-110121000D01*
X143526881Y-110058000D01*
X143573000Y-110011881D01*
X143636000Y-109995000D01*
X144747000Y-109995000D01*
X144747000Y-109975161D01*
X144744123Y-109947000D01*
X145512800Y-109947000D01*
X145512800Y-110466589D01*
X145519305Y-110527093D01*
X145570354Y-110663962D01*
X145657895Y-110780904D01*
X145774837Y-110868445D01*
X145911706Y-110919494D01*
X145972211Y-110926000D01*
X146266800Y-110926000D01*
X146266800Y-109947000D01*
X145512800Y-109947000D01*
X144744123Y-109947000D01*
X144736743Y-109874760D01*
X144682847Y-109712114D01*
X144592888Y-109566268D01*
X144590067Y-109563447D01*
X144557455Y-109506960D01*
X144557457Y-109441735D01*
X144559036Y-109439000D01*
X145512800Y-109439000D01*
X146266800Y-109439000D01*
X146266800Y-108460000D01*
X145972211Y-108460000D01*
X145911706Y-108466505D01*
X145774837Y-108517554D01*
X145657895Y-108605095D01*
X145570354Y-108722037D01*
X145519305Y-108858906D01*
X145512800Y-108919411D01*
X145512800Y-109439000D01*
X144559036Y-109439000D01*
X144590070Y-109385254D01*
X144593285Y-109382040D01*
X144683302Y-109236101D01*
X144737236Y-109073336D01*
X144747500Y-108972872D01*
X144747500Y-108425128D01*
X144737236Y-108324664D01*
X144683302Y-108161899D01*
X144604058Y-108033426D01*
X144585300Y-107967281D01*
X144585300Y-107237224D01*
X144599536Y-107179044D01*
X144639029Y-107134011D01*
X144694852Y-107112302D01*
X144701367Y-107111443D01*
X144704124Y-107111081D01*
X144846068Y-107052286D01*
X144967957Y-106958757D01*
X145061486Y-106836868D01*
X145120281Y-106694924D01*
X145130280Y-106618973D01*
X145135300Y-106580845D01*
X145135300Y-106354355D01*
X145119461Y-106234045D01*
X145119461Y-106201153D01*
X145135300Y-106080845D01*
X145135300Y-105854355D01*
X145119461Y-105734045D01*
X145119461Y-105701153D01*
X145131391Y-105610533D01*
X145152860Y-105555052D01*
X145197391Y-105515605D01*
X145255056Y-105500985D01*
X145313001Y-105514451D01*
X145345183Y-105530664D01*
X145419189Y-105567947D01*
X145469782Y-105614394D01*
X145488500Y-105680474D01*
X145488500Y-106852238D01*
X145495011Y-106912801D01*
X145512152Y-106958757D01*
X145546111Y-107049805D01*
X145633738Y-107166861D01*
X145750794Y-107254488D01*
X145750795Y-107254488D01*
X145750796Y-107254489D01*
X145887799Y-107305589D01*
X145948362Y-107312100D01*
X147245638Y-107312100D01*
X147306201Y-107305589D01*
X147402972Y-107269494D01*
X147446999Y-107261551D01*
X147491029Y-107269495D01*
X147587799Y-107305589D01*
X147648362Y-107312100D01*
X148557406Y-107312100D01*
X148605624Y-107321691D01*
X148646501Y-107349005D01*
X149220595Y-107923099D01*
X149247909Y-107963976D01*
X149257500Y-108012194D01*
X149257500Y-108109872D01*
X149265711Y-108190243D01*
X149267764Y-108210337D01*
X149280324Y-108248240D01*
X149285253Y-108307038D01*
X149262872Y-108361634D01*
X149218089Y-108400053D01*
X149160725Y-108413872D01*
X149086345Y-108413875D01*
X148906539Y-108437557D01*
X148831562Y-108457651D01*
X148785479Y-108461224D01*
X148769441Y-108459500D01*
X148769438Y-108459500D01*
X147672162Y-108459500D01*
X147611599Y-108466011D01*
X147474594Y-108517111D01*
X147445890Y-108538599D01*
X147397164Y-108560851D01*
X147343598Y-108560850D01*
X147294872Y-108538598D01*
X147266760Y-108517553D01*
X147129893Y-108466505D01*
X147069389Y-108460000D01*
X146774800Y-108460000D01*
X146774800Y-110926000D01*
X147069389Y-110926000D01*
X147129893Y-110919494D01*
X147266763Y-110868445D01*
X147294872Y-110847403D01*
X147343598Y-110825149D01*
X147397166Y-110825148D01*
X147445889Y-110847399D01*
X147474596Y-110868889D01*
X147499900Y-110878327D01*
X147505334Y-110880354D01*
X147548251Y-110907219D01*
X147577127Y-110948810D01*
X147587300Y-110998409D01*
X147587300Y-113537591D01*
X147577127Y-113587191D01*
X147548250Y-113628782D01*
X147505332Y-113655647D01*
X147474594Y-113667111D01*
X147445890Y-113688599D01*
X147397164Y-113710851D01*
X147343598Y-113710850D01*
X147294872Y-113688598D01*
X147266760Y-113667553D01*
X147129893Y-113616505D01*
X147069389Y-113610000D01*
X146774800Y-113610000D01*
X146774800Y-114971000D01*
X146757919Y-115034000D01*
X146711800Y-115080119D01*
X146648800Y-115097000D01*
X145512800Y-115097000D01*
X145512800Y-115616589D01*
X145519305Y-115677093D01*
X145570354Y-115813962D01*
X145657895Y-115930904D01*
X145774837Y-116018445D01*
X145911706Y-116069494D01*
X145972211Y-116076000D01*
X146376347Y-116076000D01*
X146442677Y-116094873D01*
X146489137Y-116145837D01*
X146501810Y-116213626D01*
X146476897Y-116277932D01*
X146420197Y-116353014D01*
X146328232Y-116537703D01*
X146271768Y-116736152D01*
X146252731Y-116941600D01*
X146271768Y-117147047D01*
X146328232Y-117345496D01*
X146420197Y-117530185D01*
X146462599Y-117586334D01*
X146544537Y-117694838D01*
X146697013Y-117833838D01*
X146818924Y-117909322D01*
X146859618Y-117934519D01*
X146872434Y-117942454D01*
X147064826Y-118016987D01*
X147064828Y-118016987D01*
X147064830Y-118016988D01*
X147267635Y-118054900D01*
X147267638Y-118054900D01*
X147473962Y-118054900D01*
X147473965Y-118054900D01*
X147676769Y-118016988D01*
X147676769Y-118016987D01*
X147676774Y-118016987D01*
X147869166Y-117942454D01*
X148044587Y-117833838D01*
X148197063Y-117694838D01*
X148321401Y-117530187D01*
X148367349Y-117437912D01*
X148413367Y-117345496D01*
X148413368Y-117345493D01*
X148469832Y-117147045D01*
X148488869Y-116941600D01*
X148469832Y-116736155D01*
X148413368Y-116537707D01*
X148413367Y-116537703D01*
X148321402Y-116353014D01*
X148265080Y-116278432D01*
X148240168Y-116214126D01*
X148252839Y-116146337D01*
X148299300Y-116095373D01*
X148365630Y-116076500D01*
X148769438Y-116076500D01*
X148830001Y-116069989D01*
X148967004Y-116018889D01*
X149084061Y-115931261D01*
X149171689Y-115814204D01*
X149222789Y-115677201D01*
X149229300Y-115616638D01*
X149229300Y-114069362D01*
X149222789Y-114008799D01*
X149171689Y-113871796D01*
X149149632Y-113842331D01*
X149084061Y-113754738D01*
X148967005Y-113667111D01*
X148936268Y-113655647D01*
X148893350Y-113628782D01*
X148864473Y-113587191D01*
X148854300Y-113537591D01*
X148854300Y-110998409D01*
X148864473Y-110948809D01*
X148893350Y-110907218D01*
X148936268Y-110880353D01*
X148967004Y-110868889D01*
X149084061Y-110781261D01*
X149171689Y-110664204D01*
X149222789Y-110527201D01*
X149229300Y-110466638D01*
X149229300Y-109806900D01*
X149246181Y-109743900D01*
X149292300Y-109697781D01*
X149355300Y-109680900D01*
X150391525Y-109680900D01*
X150391565Y-109680904D01*
X150407049Y-109680903D01*
X150407053Y-109680904D01*
X150431753Y-109680902D01*
X150431890Y-109680929D01*
X150483974Y-109680927D01*
X150483974Y-109680928D01*
X150574649Y-109680924D01*
X150574654Y-109680924D01*
X150668944Y-109668505D01*
X150754459Y-109657242D01*
X150929636Y-109610295D01*
X151097187Y-109540884D01*
X151254244Y-109450198D01*
X151398122Y-109339788D01*
X151462239Y-109275665D01*
X151464674Y-109273230D01*
X151640465Y-109097440D01*
X151640468Y-109097435D01*
X151646029Y-109091875D01*
X151646302Y-109091563D01*
X151676367Y-109061503D01*
X151786775Y-108917629D01*
X151877459Y-108760575D01*
X151946868Y-108593027D01*
X151993815Y-108417854D01*
X152017496Y-108238051D01*
X152017496Y-108238050D01*
X152017500Y-108238020D01*
X152017500Y-108137968D01*
X152017500Y-108131878D01*
X152017504Y-108070453D01*
X152017503Y-108070450D01*
X152017504Y-108054965D01*
X152017500Y-108054925D01*
X152017500Y-103019075D01*
X152017504Y-103019034D01*
X152017503Y-103003550D01*
X152017504Y-103003547D01*
X152017502Y-102978845D01*
X152017529Y-102978711D01*
X152017527Y-102926626D01*
X152017528Y-102926626D01*
X152017524Y-102835947D01*
X151993842Y-102656141D01*
X151946895Y-102480964D01*
X151877484Y-102313413D01*
X151863523Y-102289235D01*
X151840002Y-102248500D01*
X169857400Y-102248500D01*
X170586400Y-102248500D01*
X170586400Y-100901000D01*
X169857401Y-100901000D01*
X169857401Y-100904225D01*
X169863881Y-100975556D01*
X169915033Y-101139706D01*
X170003982Y-101286846D01*
X170125553Y-101408417D01*
X170190170Y-101447479D01*
X170234595Y-101493164D01*
X170250985Y-101554743D01*
X170235148Y-101616467D01*
X170191134Y-101662548D01*
X170132670Y-101698609D01*
X170011511Y-101819768D01*
X169921552Y-101965614D01*
X169867656Y-102128260D01*
X169857400Y-102228661D01*
X169857400Y-102248500D01*
X151840002Y-102248500D01*
X151786798Y-102156356D01*
X151676389Y-102012479D01*
X151653222Y-101989314D01*
X151620725Y-101956820D01*
X151375040Y-101711135D01*
X151375039Y-101711134D01*
X151369641Y-101705736D01*
X151369321Y-101705453D01*
X151339105Y-101675235D01*
X151339104Y-101675234D01*
X151339103Y-101675233D01*
X151195229Y-101564825D01*
X151195225Y-101564823D01*
X151195223Y-101564821D01*
X151038178Y-101474142D01*
X150973815Y-101447479D01*
X150870627Y-101404732D01*
X150755901Y-101373985D01*
X150695451Y-101357784D01*
X150515621Y-101334100D01*
X150504970Y-101334100D01*
X150424974Y-101334100D01*
X150332565Y-101334095D01*
X150332525Y-101334100D01*
X149335001Y-101334100D01*
X149276599Y-101319748D01*
X149231502Y-101279961D01*
X149209983Y-101223803D01*
X149216945Y-101164068D01*
X149222789Y-101148401D01*
X149229300Y-101087838D01*
X149229300Y-99540562D01*
X149222789Y-99479999D01*
X149171689Y-99342996D01*
X149171688Y-99342994D01*
X149084062Y-99225939D01*
X149014338Y-99173745D01*
X148967004Y-99138311D01*
X148967002Y-99138310D01*
X148954792Y-99129170D01*
X148917628Y-99084701D01*
X148904300Y-99028301D01*
X148904300Y-98874383D01*
X148923613Y-98807347D01*
X148931287Y-98795131D01*
X148942043Y-98778015D01*
X149002217Y-98606047D01*
X149022616Y-98425000D01*
X149002217Y-98243953D01*
X148942043Y-98071985D01*
X148935731Y-98061939D01*
X148923613Y-98042653D01*
X148904300Y-97975617D01*
X148904300Y-96450099D01*
X148917628Y-96393699D01*
X148954792Y-96349230D01*
X148967001Y-96340089D01*
X148967004Y-96340089D01*
X149084061Y-96252461D01*
X149171689Y-96135404D01*
X149222789Y-95998401D01*
X149229300Y-95937838D01*
X149229300Y-94390562D01*
X149222789Y-94329999D01*
X149171689Y-94192996D01*
X149165426Y-94184629D01*
X149084061Y-94075938D01*
X148967005Y-93988311D01*
X148898502Y-93962760D01*
X148830001Y-93937211D01*
X148769438Y-93930700D01*
X147672162Y-93930700D01*
X147611599Y-93937211D01*
X147474594Y-93988311D01*
X147445890Y-94009799D01*
X147397164Y-94032051D01*
X147343598Y-94032050D01*
X147294872Y-94009798D01*
X147266760Y-93988753D01*
X147129893Y-93937705D01*
X147069389Y-93931200D01*
X146774800Y-93931200D01*
X146774800Y-96397200D01*
X147069389Y-96397200D01*
X147129893Y-96390694D01*
X147266763Y-96339645D01*
X147294872Y-96318603D01*
X147343598Y-96296349D01*
X147397165Y-96296348D01*
X147445890Y-96318600D01*
X147474596Y-96340089D01*
X147474597Y-96340089D01*
X147486809Y-96349231D01*
X147523972Y-96393699D01*
X147537300Y-96450099D01*
X147537300Y-97938059D01*
X147517987Y-98005095D01*
X147475956Y-98071985D01*
X147415783Y-98243950D01*
X147395644Y-98422689D01*
X147395384Y-98425000D01*
X147399327Y-98459994D01*
X147415783Y-98606049D01*
X147475956Y-98778014D01*
X147517987Y-98844905D01*
X147537300Y-98911941D01*
X147537300Y-99028301D01*
X147523972Y-99084702D01*
X147486807Y-99129170D01*
X147445890Y-99159799D01*
X147397165Y-99182051D01*
X147343599Y-99182050D01*
X147294874Y-99159798D01*
X147266762Y-99138754D01*
X147129893Y-99087705D01*
X147069389Y-99081200D01*
X146774800Y-99081200D01*
X146774800Y-100442200D01*
X146757919Y-100505200D01*
X146711800Y-100551319D01*
X146648800Y-100568200D01*
X145512800Y-100568200D01*
X145512800Y-101087789D01*
X145519305Y-101148291D01*
X145525189Y-101164067D01*
X145532151Y-101223803D01*
X145510632Y-101279961D01*
X145465535Y-101319748D01*
X145407133Y-101334100D01*
X145245129Y-101334100D01*
X145177429Y-101314367D01*
X145130934Y-101261349D01*
X145120207Y-101191653D01*
X145129956Y-101117600D01*
X145127784Y-101115123D01*
X145082678Y-101104606D01*
X145038443Y-101068302D01*
X145020027Y-101044301D01*
X144996977Y-100994868D01*
X144996978Y-100940325D01*
X145020028Y-100890896D01*
X145038446Y-100866893D01*
X145082680Y-100830593D01*
X145127784Y-100820076D01*
X145129956Y-100817599D01*
X145119208Y-100735958D01*
X145119208Y-100703063D01*
X145120278Y-100694928D01*
X145120281Y-100694924D01*
X145135300Y-100580844D01*
X145135300Y-100354356D01*
X145135300Y-100354355D01*
X145119461Y-100234045D01*
X145119461Y-100201153D01*
X145135300Y-100080845D01*
X145135300Y-100060200D01*
X145512800Y-100060200D01*
X146266800Y-100060200D01*
X146266800Y-99081200D01*
X145972211Y-99081200D01*
X145911706Y-99087705D01*
X145774837Y-99138754D01*
X145657895Y-99226295D01*
X145570354Y-99343237D01*
X145519305Y-99480106D01*
X145512800Y-99540611D01*
X145512800Y-100060200D01*
X145135300Y-100060200D01*
X145135300Y-99854355D01*
X145119461Y-99734045D01*
X145119461Y-99701153D01*
X145135300Y-99580845D01*
X145135300Y-99354355D01*
X145119461Y-99234046D01*
X145119461Y-99201154D01*
X145135300Y-99080845D01*
X145135300Y-98854355D01*
X145120281Y-98740276D01*
X145106206Y-98706296D01*
X145061486Y-98598332D01*
X145061485Y-98598331D01*
X145061485Y-98598330D01*
X144967957Y-98476442D01*
X144846069Y-98382914D01*
X144704123Y-98324118D01*
X144590045Y-98309100D01*
X144590044Y-98309100D01*
X143188556Y-98309100D01*
X143188555Y-98309100D01*
X143074476Y-98324118D01*
X142932530Y-98382914D01*
X142810642Y-98476442D01*
X142717114Y-98598330D01*
X142673857Y-98702762D01*
X142639279Y-98750354D01*
X142586865Y-98777062D01*
X142528038Y-98777064D01*
X142475622Y-98750359D01*
X142441043Y-98702771D01*
X142402480Y-98609689D01*
X142396218Y-98598845D01*
X142333082Y-98489504D01*
X142311792Y-98452633D01*
X142288811Y-98422688D01*
X142265192Y-98370565D01*
X142267063Y-98313369D01*
X142294040Y-98262900D01*
X142340554Y-98229569D01*
X142346068Y-98227286D01*
X142467957Y-98133757D01*
X142561486Y-98011868D01*
X142620281Y-97869924D01*
X142631913Y-97781571D01*
X142635300Y-97755845D01*
X142635300Y-96787000D01*
X143289000Y-96787000D01*
X143289000Y-96806839D01*
X143299256Y-96907239D01*
X143353152Y-97069885D01*
X143443111Y-97215731D01*
X143564268Y-97336888D01*
X143710114Y-97426847D01*
X143872760Y-97480743D01*
X143973161Y-97491000D01*
X144018000Y-97491000D01*
X144018000Y-96787000D01*
X144526000Y-96787000D01*
X144526000Y-97491000D01*
X144570839Y-97491000D01*
X144671239Y-97480743D01*
X144833885Y-97426847D01*
X144979731Y-97336888D01*
X145100888Y-97215731D01*
X145190847Y-97069885D01*
X145244743Y-96907239D01*
X145255000Y-96806839D01*
X145255000Y-96787000D01*
X144526000Y-96787000D01*
X144018000Y-96787000D01*
X143289000Y-96787000D01*
X142635300Y-96787000D01*
X142635300Y-96354355D01*
X142620281Y-96240276D01*
X142584221Y-96153218D01*
X142575237Y-96092650D01*
X142595865Y-96034998D01*
X142641234Y-95993878D01*
X142700630Y-95979000D01*
X142730039Y-95979000D01*
X142830439Y-95968743D01*
X142993085Y-95914847D01*
X143138928Y-95824890D01*
X143211333Y-95752485D01*
X143263122Y-95721230D01*
X143323510Y-95717712D01*
X143378578Y-95742743D01*
X143415634Y-95790554D01*
X143426139Y-95850124D01*
X143407670Y-95907726D01*
X143353153Y-95996112D01*
X143299256Y-96158760D01*
X143289000Y-96259161D01*
X143289000Y-96279000D01*
X145255000Y-96279000D01*
X145255000Y-96259161D01*
X145244743Y-96158760D01*
X145190847Y-95996114D01*
X145100888Y-95850268D01*
X145098067Y-95847447D01*
X145065455Y-95790960D01*
X145065457Y-95725735D01*
X145098070Y-95669254D01*
X145101285Y-95666040D01*
X145191302Y-95520101D01*
X145225068Y-95418200D01*
X145512800Y-95418200D01*
X145512800Y-95937789D01*
X145519305Y-95998293D01*
X145570354Y-96135162D01*
X145657895Y-96252104D01*
X145774837Y-96339645D01*
X145911706Y-96390694D01*
X145972211Y-96397200D01*
X146266800Y-96397200D01*
X146266800Y-95418200D01*
X145512800Y-95418200D01*
X145225068Y-95418200D01*
X145245236Y-95357336D01*
X145255500Y-95256872D01*
X145255500Y-94910200D01*
X145512800Y-94910200D01*
X146266800Y-94910200D01*
X146266800Y-93931200D01*
X145972211Y-93931200D01*
X145911706Y-93937705D01*
X145774837Y-93988754D01*
X145657895Y-94076295D01*
X145570354Y-94193237D01*
X145519305Y-94330106D01*
X145512800Y-94390611D01*
X145512800Y-94910200D01*
X145255500Y-94910200D01*
X145255500Y-94709128D01*
X145245236Y-94608664D01*
X145191302Y-94445899D01*
X145101285Y-94299960D01*
X145101283Y-94299958D01*
X145101282Y-94299956D01*
X145070293Y-94268967D01*
X145039371Y-94218236D01*
X145035133Y-94158976D01*
X145058519Y-94104364D01*
X145085589Y-94068204D01*
X145136689Y-93931201D01*
X145143200Y-93870638D01*
X145143200Y-93357400D01*
X169857400Y-93357400D01*
X170586400Y-93357400D01*
X170586400Y-92653400D01*
X171094400Y-92653400D01*
X171094400Y-93357400D01*
X171823400Y-93357400D01*
X171823400Y-93337561D01*
X171813143Y-93237160D01*
X171759247Y-93074514D01*
X171669288Y-92928668D01*
X171548131Y-92807511D01*
X171402285Y-92717552D01*
X171239639Y-92663656D01*
X171139239Y-92653400D01*
X171094400Y-92653400D01*
X170586400Y-92653400D01*
X170541561Y-92653400D01*
X170441160Y-92663656D01*
X170278514Y-92717552D01*
X170132668Y-92807511D01*
X170011511Y-92928668D01*
X169921552Y-93074514D01*
X169867656Y-93237160D01*
X169857400Y-93337561D01*
X169857400Y-93357400D01*
X145143200Y-93357400D01*
X145143200Y-92666962D01*
X145136689Y-92606399D01*
X145085589Y-92469396D01*
X145085588Y-92469394D01*
X144997961Y-92352338D01*
X144880905Y-92264711D01*
X144812402Y-92239161D01*
X144743901Y-92213611D01*
X144683338Y-92207100D01*
X143479662Y-92207100D01*
X143419099Y-92213611D01*
X143282094Y-92264711D01*
X143173226Y-92346209D01*
X143107266Y-92370979D01*
X143038321Y-92356463D01*
X142902067Y-92283634D01*
X142702032Y-92222953D01*
X142494000Y-92202464D01*
X142285967Y-92222953D01*
X142085930Y-92283634D01*
X141943940Y-92359529D01*
X141943939Y-92359529D01*
X142764115Y-93179705D01*
X142796727Y-93236189D01*
X142796727Y-93301411D01*
X142764115Y-93357895D01*
X142583095Y-93538915D01*
X142526611Y-93571527D01*
X142461389Y-93571527D01*
X142404905Y-93538915D01*
X141986554Y-93120564D01*
X141955074Y-93068045D01*
X141952838Y-93060675D01*
X141952838Y-93060670D01*
X141892129Y-92860539D01*
X141793543Y-92676097D01*
X141712972Y-92577921D01*
X141660868Y-92514431D01*
X141562372Y-92433598D01*
X141499203Y-92381757D01*
X141314761Y-92283171D01*
X141314760Y-92283170D01*
X141314759Y-92283170D01*
X141114630Y-92222461D01*
X140906499Y-92201962D01*
X140698369Y-92222461D01*
X140498240Y-92283170D01*
X140313794Y-92381758D01*
X140192683Y-92481152D01*
X140141362Y-92506462D01*
X140084138Y-92506462D01*
X140032817Y-92481152D01*
X139911705Y-92381758D01*
X139727259Y-92283170D01*
X139527130Y-92222461D01*
X139318999Y-92201962D01*
X139110869Y-92222461D01*
X138910740Y-92283170D01*
X138726294Y-92381758D01*
X138605183Y-92481152D01*
X138553862Y-92506462D01*
X138496638Y-92506462D01*
X138445317Y-92481152D01*
X138324205Y-92381758D01*
X138139759Y-92283170D01*
X137939630Y-92222461D01*
X137731499Y-92201962D01*
X137523369Y-92222461D01*
X137323240Y-92283170D01*
X137138794Y-92381758D01*
X137017683Y-92481152D01*
X136966362Y-92506462D01*
X136909138Y-92506462D01*
X136857817Y-92481152D01*
X136736705Y-92381758D01*
X136552259Y-92283170D01*
X136352130Y-92222461D01*
X136144000Y-92201962D01*
X135935869Y-92222461D01*
X135735740Y-92283170D01*
X135551298Y-92381756D01*
X135389631Y-92514431D01*
X135256956Y-92676098D01*
X135158370Y-92860540D01*
X135097661Y-93060669D01*
X135077162Y-93268800D01*
X135092864Y-93428228D01*
X135084905Y-93486244D01*
X135051579Y-93534396D01*
X135000087Y-93562283D01*
X134922122Y-93583177D01*
X134751535Y-93653845D01*
X134591649Y-93746161D01*
X134487017Y-93826454D01*
X134445167Y-93858570D01*
X134445165Y-93858571D01*
X134445165Y-93858572D01*
X134379889Y-93923850D01*
X134379888Y-93923851D01*
X134328145Y-93975595D01*
X134287268Y-94002909D01*
X134239049Y-94012500D01*
X134105128Y-94012500D01*
X134004664Y-94022764D01*
X133841899Y-94076698D01*
X133820554Y-94089864D01*
X133695956Y-94166717D01*
X133692742Y-94169932D01*
X133636258Y-94202544D01*
X133571036Y-94202544D01*
X133514552Y-94169932D01*
X133511731Y-94167111D01*
X133365885Y-94077152D01*
X133203239Y-94023256D01*
X133102839Y-94013000D01*
X133083000Y-94013000D01*
X133083000Y-95979000D01*
X133102839Y-95979000D01*
X133203239Y-95968743D01*
X133365885Y-95914847D01*
X133511726Y-95824891D01*
X133514548Y-95822070D01*
X133571034Y-95789456D01*
X133636260Y-95789456D01*
X133692743Y-95822068D01*
X133695960Y-95825285D01*
X133758448Y-95863829D01*
X133802324Y-95909662D01*
X133818300Y-95971068D01*
X133818300Y-97755845D01*
X133833318Y-97869923D01*
X133892114Y-98011869D01*
X133985642Y-98133757D01*
X134107530Y-98227285D01*
X134107531Y-98227285D01*
X134107532Y-98227286D01*
X134220252Y-98273976D01*
X134249476Y-98286081D01*
X134363555Y-98301100D01*
X134363556Y-98301100D01*
X134590044Y-98301100D01*
X134590045Y-98301100D01*
X134710354Y-98285261D01*
X134743246Y-98285261D01*
X134863555Y-98301100D01*
X134863556Y-98301100D01*
X135090044Y-98301100D01*
X135203012Y-98286227D01*
X135259398Y-98291647D01*
X135307714Y-98321224D01*
X135338189Y-98368977D01*
X135344664Y-98425256D01*
X135335782Y-98504087D01*
X135330384Y-98552000D01*
X135335604Y-98598329D01*
X135350783Y-98733049D01*
X135410956Y-98905014D01*
X135507889Y-99059282D01*
X135518214Y-99069607D01*
X135545528Y-99110484D01*
X135555119Y-99158702D01*
X135555119Y-102887441D01*
X135554036Y-102903922D01*
X135553494Y-102908030D01*
X135528547Y-102968243D01*
X135525990Y-102971576D01*
X135515116Y-102983977D01*
X135067195Y-103431900D01*
X135067191Y-103431904D01*
X134025395Y-104473699D01*
X133975236Y-104504437D01*
X133916589Y-104509053D01*
X133862239Y-104486540D01*
X133824033Y-104441807D01*
X133810300Y-104384604D01*
X133810300Y-104354355D01*
X133794461Y-104234046D01*
X133794461Y-104201154D01*
X133810300Y-104080845D01*
X133810300Y-103854355D01*
X133794461Y-103734045D01*
X133794461Y-103701153D01*
X133810300Y-103580845D01*
X133810300Y-103354355D01*
X133794461Y-103234045D01*
X133794461Y-103201153D01*
X133810300Y-103080845D01*
X133810300Y-102854355D01*
X133794461Y-102734046D01*
X133794461Y-102701154D01*
X133810300Y-102580845D01*
X133810300Y-102354355D01*
X133794461Y-102234045D01*
X133794461Y-102201153D01*
X133810300Y-102080845D01*
X133810300Y-101854355D01*
X133794461Y-101734045D01*
X133794461Y-101701153D01*
X133810300Y-101580845D01*
X133810300Y-101354355D01*
X133794461Y-101234046D01*
X133794461Y-101201154D01*
X133810300Y-101080845D01*
X133810300Y-100854355D01*
X133794461Y-100734045D01*
X133794461Y-100701153D01*
X133810300Y-100580845D01*
X133810300Y-100354355D01*
X133794461Y-100234045D01*
X133794461Y-100201153D01*
X133810300Y-100080845D01*
X133810300Y-99854355D01*
X133794461Y-99734045D01*
X133794461Y-99701153D01*
X133810300Y-99580845D01*
X133810300Y-99354355D01*
X133794461Y-99234046D01*
X133794461Y-99201154D01*
X133810300Y-99080845D01*
X133810300Y-98854355D01*
X133795281Y-98740276D01*
X133781206Y-98706296D01*
X133736486Y-98598332D01*
X133736485Y-98598331D01*
X133736485Y-98598330D01*
X133642957Y-98476442D01*
X133521069Y-98382914D01*
X133379123Y-98324118D01*
X133265045Y-98309100D01*
X133265044Y-98309100D01*
X131863556Y-98309100D01*
X131863555Y-98309100D01*
X131749476Y-98324118D01*
X131607530Y-98382914D01*
X131485642Y-98476442D01*
X131392115Y-98598329D01*
X131379463Y-98628874D01*
X131336961Y-98682703D01*
X131272560Y-98706296D01*
X131205343Y-98692661D01*
X131155226Y-98645840D01*
X131126815Y-98598843D01*
X131005157Y-98477185D01*
X130939225Y-98437328D01*
X130857913Y-98388173D01*
X130796310Y-98368977D01*
X130693648Y-98336986D01*
X130627767Y-98331000D01*
X130622264Y-98330500D01*
X130107735Y-98330500D01*
X130036351Y-98336986D01*
X129872087Y-98388173D01*
X129724842Y-98477185D01*
X129628741Y-98573287D01*
X129572257Y-98605899D01*
X129507035Y-98605899D01*
X129450551Y-98573287D01*
X129354846Y-98477582D01*
X129207706Y-98388633D01*
X129043555Y-98337481D01*
X128972226Y-98331000D01*
X128969000Y-98331000D01*
X128969000Y-99442000D01*
X128952119Y-99505000D01*
X128906000Y-99551119D01*
X128843000Y-99568000D01*
X127807001Y-99568000D01*
X127807001Y-99646225D01*
X127813481Y-99717556D01*
X127864633Y-99881706D01*
X127953582Y-100028846D01*
X128038287Y-100113551D01*
X128070899Y-100170035D01*
X128070899Y-100235257D01*
X128038287Y-100291741D01*
X127953185Y-100376842D01*
X127864173Y-100524087D01*
X127812986Y-100688351D01*
X127806500Y-100759736D01*
X127806500Y-101065604D01*
X127791087Y-101125989D01*
X127748621Y-101171602D01*
X127689488Y-101191283D01*
X127628157Y-101180217D01*
X127579631Y-101141112D01*
X127560903Y-101116094D01*
X127443962Y-101028554D01*
X127307093Y-100977505D01*
X127246589Y-100971000D01*
X127234595Y-100971000D01*
X127168058Y-100951999D01*
X127121589Y-100900728D01*
X127109202Y-100832650D01*
X127121380Y-100709000D01*
X127101908Y-100511298D01*
X127054300Y-100354356D01*
X127044241Y-100321196D01*
X126961380Y-100166173D01*
X126950593Y-100145992D01*
X126824568Y-99992431D01*
X126671007Y-99866406D01*
X126495802Y-99772758D01*
X126305701Y-99715091D01*
X126157550Y-99700500D01*
X126157547Y-99700500D01*
X124958453Y-99700500D01*
X124958450Y-99700500D01*
X124810298Y-99715091D01*
X124620197Y-99772758D01*
X124444992Y-99866406D01*
X124291431Y-99992431D01*
X124165406Y-100145992D01*
X124071758Y-100321197D01*
X124014091Y-100511298D01*
X123994619Y-100708999D01*
X124014091Y-100906701D01*
X124071758Y-101096802D01*
X124165406Y-101272007D01*
X124291431Y-101425568D01*
X124444994Y-101551594D01*
X124532676Y-101598461D01*
X124573867Y-101633699D01*
X124596441Y-101682982D01*
X124596220Y-101737189D01*
X124573244Y-101786286D01*
X124525302Y-101848765D01*
X124467312Y-101988764D01*
X124447534Y-102138999D01*
X124467312Y-102289235D01*
X124525301Y-102429232D01*
X124525302Y-102429233D01*
X124617549Y-102549451D01*
X124623735Y-102554198D01*
X124665433Y-102611064D01*
X124670045Y-102681431D01*
X124636128Y-102743255D01*
X124289083Y-103090301D01*
X124288802Y-103090616D01*
X124256964Y-103122453D01*
X124142563Y-103271530D01*
X124048603Y-103434258D01*
X123976685Y-103607864D01*
X123928040Y-103789371D01*
X123903504Y-103975666D01*
X123903502Y-104021687D01*
X123903500Y-104021733D01*
X123903500Y-104069624D01*
X123903495Y-104160440D01*
X123903500Y-104160487D01*
X123903500Y-105954992D01*
X123903499Y-105955000D01*
X123903499Y-105995322D01*
X123903493Y-105995355D01*
X119901200Y-105995355D01*
X119901200Y-101285826D01*
X119904496Y-101257196D01*
X119919789Y-101191653D01*
X119926595Y-101162483D01*
X119954036Y-101108647D01*
X120003387Y-101073777D01*
X120063297Y-101065894D01*
X120119988Y-101086812D01*
X120160421Y-101131718D01*
X120235406Y-101272007D01*
X120361431Y-101425568D01*
X120514992Y-101551593D01*
X120539740Y-101564821D01*
X120690196Y-101645241D01*
X120747250Y-101662548D01*
X120880298Y-101702908D01*
X121028450Y-101717500D01*
X121028453Y-101717500D01*
X121727547Y-101717500D01*
X121727550Y-101717500D01*
X121875701Y-101702908D01*
X121889876Y-101698608D01*
X122065804Y-101645241D01*
X122241004Y-101551595D01*
X122241005Y-101551593D01*
X122241007Y-101551593D01*
X122394568Y-101425568D01*
X122520593Y-101272007D01*
X122520960Y-101271321D01*
X122614241Y-101096804D01*
X122671908Y-100906701D01*
X122691380Y-100709000D01*
X122679068Y-100584000D01*
X122671908Y-100511298D01*
X122624300Y-100354356D01*
X122614241Y-100321196D01*
X122531380Y-100166173D01*
X122520593Y-100145992D01*
X122394568Y-99992431D01*
X122241007Y-99866406D01*
X122065802Y-99772758D01*
X121875701Y-99715091D01*
X121727550Y-99700500D01*
X121727547Y-99700500D01*
X121536255Y-99700500D01*
X121473622Y-99683831D01*
X121427562Y-99638233D01*
X121410261Y-99575772D01*
X121426298Y-99512974D01*
X121471426Y-99466457D01*
X122148854Y-99060000D01*
X127807000Y-99060000D01*
X128461000Y-99060000D01*
X128461000Y-98331001D01*
X128457775Y-98331001D01*
X128386443Y-98337481D01*
X128222293Y-98388633D01*
X128075153Y-98477582D01*
X127953582Y-98599153D01*
X127864633Y-98746293D01*
X127813481Y-98910444D01*
X127807000Y-98981774D01*
X127807000Y-99060000D01*
X122148854Y-99060000D01*
X124189651Y-97835522D01*
X124244696Y-97817948D01*
X124301802Y-97826795D01*
X124348952Y-97860204D01*
X124633637Y-98182846D01*
X124634444Y-98184214D01*
X124652876Y-98204663D01*
X124653749Y-98205641D01*
X124655085Y-98207155D01*
X124655152Y-98207186D01*
X124655153Y-98207188D01*
X124656809Y-98207976D01*
X124657976Y-98208539D01*
X124662309Y-98210660D01*
X124682991Y-98220783D01*
X124684544Y-98221184D01*
X125164181Y-98449582D01*
X125165192Y-98450325D01*
X125190577Y-98462157D01*
X125191515Y-98462599D01*
X125193343Y-98463469D01*
X125193398Y-98463471D01*
X125193402Y-98463473D01*
X125195660Y-98463570D01*
X125196164Y-98463594D01*
X125201378Y-98463865D01*
X125201379Y-98463863D01*
X125225362Y-98465107D01*
X125226598Y-98464915D01*
X125775179Y-98488768D01*
X125782213Y-98489504D01*
X125787587Y-98487779D01*
X125791760Y-98486615D01*
X125797070Y-98483928D01*
X126330659Y-98289895D01*
X126343502Y-98286667D01*
X126348009Y-98284529D01*
X126358629Y-98276627D01*
X129915299Y-96157760D01*
X129927187Y-96152259D01*
X129931731Y-96148945D01*
X129940601Y-96139308D01*
X130341041Y-95785978D01*
X130346425Y-95782666D01*
X130358105Y-95771265D01*
X130358106Y-95771266D01*
X130359510Y-95769895D01*
X130363772Y-95765940D01*
X130366190Y-95760666D01*
X130367060Y-95758891D01*
X130367059Y-95758889D01*
X130374232Y-95744238D01*
X130375694Y-95738088D01*
X130584875Y-95250000D01*
X131871000Y-95250000D01*
X131871000Y-95294839D01*
X131881256Y-95395239D01*
X131935152Y-95557885D01*
X132025111Y-95703731D01*
X132146268Y-95824888D01*
X132292114Y-95914847D01*
X132454760Y-95968743D01*
X132555161Y-95979000D01*
X132575000Y-95979000D01*
X132575000Y-95250000D01*
X131871000Y-95250000D01*
X130584875Y-95250000D01*
X130591482Y-95234584D01*
X130594637Y-95227920D01*
X130595000Y-95220555D01*
X130636614Y-94742000D01*
X131871000Y-94742000D01*
X132575000Y-94742000D01*
X132575000Y-94013000D01*
X132555161Y-94013000D01*
X132454760Y-94023256D01*
X132292114Y-94077152D01*
X132146268Y-94167111D01*
X132025111Y-94288268D01*
X131935152Y-94434114D01*
X131881256Y-94596760D01*
X131871000Y-94697161D01*
X131871000Y-94742000D01*
X130636614Y-94742000D01*
X130642940Y-94669255D01*
X130644379Y-94663893D01*
X130645145Y-94646442D01*
X130645147Y-94646442D01*
X130645258Y-94643914D01*
X130645604Y-94638635D01*
X130643893Y-94633594D01*
X130637893Y-94614607D01*
X130635116Y-94609796D01*
X130480509Y-94184623D01*
X130473685Y-94127746D01*
X130492751Y-94073722D01*
X130533764Y-94033726D01*
X134083701Y-91888973D01*
X134102055Y-91879834D01*
X134455860Y-91738312D01*
X134487021Y-91730274D01*
X134867035Y-91682773D01*
X134882664Y-91681800D01*
X171970847Y-91681800D01*
X171993386Y-91683832D01*
G37*
%TD.AperFunction*%
%TA.AperFunction,Conductor*%
G36*
X171908465Y-107985788D02*
G01*
X171953684Y-108031803D01*
X171970200Y-108094167D01*
X171970200Y-108794381D01*
X171953684Y-108856745D01*
X171908465Y-108902760D01*
X171846399Y-108920362D01*
X171783756Y-108904937D01*
X171736960Y-108860529D01*
X171669685Y-108751460D01*
X171669683Y-108751458D01*
X171669682Y-108751456D01*
X171548443Y-108630217D01*
X171488149Y-108593027D01*
X171421142Y-108551696D01*
X171377266Y-108505862D01*
X171361290Y-108444455D01*
X171377266Y-108383049D01*
X171421144Y-108337215D01*
X171548130Y-108258889D01*
X171669288Y-108137731D01*
X171736959Y-108028020D01*
X171783756Y-107983612D01*
X171846399Y-107968186D01*
X171908465Y-107985788D01*
G37*
%TD.AperFunction*%
%TA.AperFunction,Conductor*%
G36*
X171908465Y-106436740D02*
G01*
X171953684Y-106482755D01*
X171970200Y-106545119D01*
X171970200Y-106815833D01*
X171953684Y-106878197D01*
X171908465Y-106924212D01*
X171846399Y-106941814D01*
X171783756Y-106926388D01*
X171736959Y-106881980D01*
X171669288Y-106772268D01*
X171666467Y-106769447D01*
X171633855Y-106712960D01*
X171633857Y-106647735D01*
X171666470Y-106591254D01*
X171669685Y-106588040D01*
X171736960Y-106478970D01*
X171783756Y-106434563D01*
X171846399Y-106419138D01*
X171908465Y-106436740D01*
G37*
%TD.AperFunction*%
%TA.AperFunction,Conductor*%
G36*
X171908465Y-104584240D02*
G01*
X171953684Y-104630255D01*
X171970200Y-104692619D01*
X171970200Y-105264881D01*
X171953684Y-105327245D01*
X171908465Y-105373260D01*
X171846399Y-105390862D01*
X171783756Y-105375437D01*
X171736960Y-105331029D01*
X171669685Y-105221960D01*
X171669683Y-105221958D01*
X171669682Y-105221956D01*
X171560805Y-105113079D01*
X171533491Y-105072202D01*
X171523900Y-105023984D01*
X171523900Y-104933516D01*
X171533491Y-104885298D01*
X171560805Y-104844421D01*
X171669682Y-104735543D01*
X171669685Y-104735540D01*
X171736960Y-104626470D01*
X171783756Y-104582063D01*
X171846399Y-104566638D01*
X171908465Y-104584240D01*
G37*
%TD.AperFunction*%
%TA.AperFunction,Conductor*%
G36*
X171908465Y-103033288D02*
G01*
X171953684Y-103079303D01*
X171970200Y-103141667D01*
X171970200Y-103412381D01*
X171953684Y-103474745D01*
X171908465Y-103520760D01*
X171846399Y-103538362D01*
X171783756Y-103522937D01*
X171736960Y-103478529D01*
X171669685Y-103369460D01*
X171666468Y-103366243D01*
X171633856Y-103309760D01*
X171633856Y-103244534D01*
X171666470Y-103188048D01*
X171669291Y-103185226D01*
X171736959Y-103075520D01*
X171783756Y-103031112D01*
X171846399Y-103015686D01*
X171908465Y-103033288D01*
G37*
%TD.AperFunction*%
%TA.AperFunction,Conductor*%
G36*
X171908077Y-101144909D02*
G01*
X171953572Y-101190957D01*
X171970200Y-101253517D01*
X171970200Y-101863333D01*
X171953684Y-101925697D01*
X171908465Y-101971712D01*
X171846399Y-101989314D01*
X171783756Y-101973888D01*
X171736959Y-101929480D01*
X171669288Y-101819768D01*
X171548128Y-101698608D01*
X171489666Y-101662548D01*
X171445652Y-101616467D01*
X171429814Y-101554743D01*
X171446204Y-101493164D01*
X171490630Y-101447479D01*
X171555245Y-101408418D01*
X171676818Y-101286845D01*
X171736372Y-101188332D01*
X171782966Y-101143397D01*
X171845722Y-101127526D01*
X171908077Y-101144909D01*
G37*
%TD.AperFunction*%
M02*
