M48
; DRILL file {KiCad 7.0.1-0} date 2023 October 13, Friday 22:54:33
; FORMAT={-:-/ absolute / inch / decimal}
; #@! TF.CreationDate,2023-10-13T22:54:33+03:00
; #@! TF.GenerationSoftware,Kicad,Pcbnew,7.0.1-0
; #@! TF.FileFunction,Plated,1,2,PTH
FMAT,2
INCH
; #@! TA.AperFunction,Plated,PTH,ViaDrill
T1C0.0118
; #@! TA.AperFunction,Plated,PTH,ComponentDrill
T2C0.0236
; #@! TA.AperFunction,Plated,PTH,ComponentDrill
T3C0.0276
%
G90
G05
T1
X4.84Y-3.905
X4.84Y-4.365
X4.86Y-4.135
X4.985Y-3.91
X4.985Y-4.36
X4.9961Y-4.2843
X5.0Y-3.98
X5.0279Y-4.0828
X5.0297Y-4.1928
X5.08Y-4.435
X5.125Y-3.815
X5.1295Y-4.1206
X5.17Y-3.725
X5.17Y-4.515
X5.185Y-4.38
X5.225Y-4.265
X5.235Y-3.835
X5.255Y-4.475
X5.28Y-3.66
X5.285Y-3.91
X5.285Y-4.075
X5.295Y-4.6299
X5.3Y-4.385
X5.345Y-4.185
X5.35Y-3.74
X5.36Y-3.88
X5.375Y-4.335
X5.385Y-3.925
X5.41Y-3.95
X5.43Y-4.45
X5.43Y-4.6299
X5.455Y-4.075
X5.455Y-4.185
X5.46Y-3.92
X5.46Y-3.96
X5.4631Y-3.8802
X5.485Y-4.335
X5.4938Y-3.905
X5.5Y-4.535
X5.52Y-3.93
X5.54Y-4.075
X5.54Y-4.185
X5.5523Y-4.005
X5.57Y-4.6299
X5.5905Y-4.385
X5.615Y-4.075
X5.62Y-4.385
X5.63Y-3.78
X5.63Y-4.535
X5.705Y-4.5
X5.705Y-4.6299
X5.71Y-4.335
X5.735Y-4.255
X5.765Y-3.66
X5.765Y-3.835
X5.7707Y-4.1772
X5.795Y-4.43
X5.835Y-3.875
X5.8356Y-4.2539
X5.84Y-4.09
X5.9Y-4.335
X5.9Y-4.5
X5.9Y-4.6299
X5.915Y-4.15
X5.95Y-3.66
X5.95Y-3.76
X5.95Y-3.865
X6.01Y-4.095
X6.055Y-4.2677
X6.055Y-4.3858
X6.055Y-4.5
X6.055Y-4.6299
X6.084Y-4.324
X6.11Y-3.66
X6.11Y-3.76
X6.11Y-3.865
X6.13Y-4.325
X6.165Y-3.975
X6.2402Y-4.18
X6.2402Y-4.2677
X6.2402Y-4.3858
X6.2402Y-4.5
X6.2402Y-4.6299
X6.28Y-3.66
X6.28Y-3.8367
X6.39Y-4.18
X6.4252Y-4.3858
X6.4252Y-4.5
X6.4252Y-4.6299
X6.44Y-4.2677
X6.445Y-3.66
X6.445Y-3.76
X6.445Y-3.865
X6.445Y-3.975
X6.61Y-4.6299
X6.62Y-3.66
X6.62Y-4.235
X6.625Y-3.975
X6.635Y-4.39
X6.638Y-4.436
X6.638Y-4.492
X6.638Y-4.544
X6.645Y-4.13
X6.68Y-3.765
X6.68Y-3.865
X6.68Y-4.18
X6.726Y-3.9977
X6.726Y-4.2305
X6.782Y-3.84
X6.782Y-4.428
X6.786Y-4.604
X6.79Y-3.66
T3
X5.36Y-3.672
X5.4225Y-3.672
X5.485Y-3.672
X5.5475Y-3.672
X5.61Y-3.672
X5.6725Y-3.672
T2
G00X4.7905Y-3.9649
M15
G01X4.7669Y-3.9649
M16
G05
G00X4.7905Y-4.3051
M15
G01X4.7669Y-4.3051
M16
G05
G00X4.9649Y-3.9649
M15
G01X4.9216Y-3.9649
M16
G05
G00X4.9649Y-4.3051
M15
G01X4.9216Y-4.3051
M16
G05
T0
M30
