%TF.GenerationSoftware,KiCad,Pcbnew,7.0.1-0*%
%TF.CreationDate,2023-10-13T23:04:16+03:00*%
%TF.ProjectId,trezor_v1.1,7472657a-6f72-45f7-9631-2e312e6b6963,rev?*%
%TF.SameCoordinates,Original*%
%TF.FileFunction,Profile,NP*%
%FSLAX46Y46*%
G04 Gerber Fmt 4.6, Leading zero omitted, Abs format (unit mm)*
G04 Created by KiCad (PCBNEW 7.0.1-0) date 2023-10-13 23:04:16*
%MOMM*%
%LPD*%
G01*
G04 APERTURE LIST*
%TA.AperFunction,Profile*%
%ADD10C,0.025400*%
%TD*%
G04 APERTURE END LIST*
D10*
X130860800Y-114960400D02*
X130606800Y-114427000D01*
X171983400Y-118338600D02*
X172567600Y-118237000D01*
X171983400Y-110007400D02*
X172034200Y-110439200D01*
X173304200Y-111734600D02*
X172872400Y-111379000D01*
X173355000Y-92583000D02*
X173050200Y-92100400D01*
X134467600Y-91719400D02*
X134086600Y-91871800D01*
X172872400Y-98628200D02*
X173304200Y-98272600D01*
X172872400Y-98628200D02*
X172516800Y-98856800D01*
X120599200Y-99974400D02*
X120065800Y-100507800D01*
X173482000Y-93167200D02*
X173355000Y-92583000D01*
X130683000Y-116078000D02*
X130886200Y-115544600D01*
X130632200Y-94640400D02*
X130429000Y-94081600D01*
X120599200Y-110032800D02*
X124028200Y-112090200D01*
X134086600Y-118135400D02*
X134467600Y-118287800D01*
X130886200Y-115544600D02*
X130860800Y-114960400D01*
X126085600Y-111582200D02*
X130175000Y-114020600D01*
X171983400Y-91668600D02*
X134874000Y-91668600D01*
X172542200Y-91770200D02*
X171983400Y-91668600D01*
X119888000Y-101269800D02*
X119888000Y-108762800D01*
X130683000Y-116078000D02*
X134086600Y-118135400D01*
X171983400Y-110007400D02*
X171983400Y-99999800D01*
X125780800Y-98475800D02*
X126339600Y-98272600D01*
X173355000Y-117424200D02*
X173482000Y-116840000D01*
X173050200Y-92100400D02*
X172542200Y-91770200D01*
X172212000Y-99187000D02*
X172034200Y-99568000D01*
X126085600Y-111582200D02*
X125526800Y-111379000D01*
X172034200Y-110439200D02*
X172212000Y-110820200D01*
X134874000Y-91668600D02*
X134467600Y-91719400D01*
X173482000Y-97713800D02*
X173482000Y-93167200D01*
X129921000Y-96139000D02*
X126339600Y-98272600D01*
X134086600Y-91871800D02*
X130429000Y-94081600D01*
X120065800Y-109499400D02*
X120599200Y-110032800D01*
X172516800Y-111150400D02*
X172872400Y-111379000D01*
X172212000Y-110820200D02*
X172516800Y-111150400D01*
X124282200Y-97764600D02*
X120599200Y-99974400D01*
X134874000Y-118338600D02*
X171983400Y-118338600D01*
X125196600Y-98450400D02*
X125780800Y-98475800D01*
X173304200Y-98272600D02*
X173482000Y-97713800D01*
X173482000Y-116840000D02*
X173482000Y-112293400D01*
X124663200Y-98196400D02*
X125196600Y-98450400D01*
X172567600Y-118237000D02*
X173050200Y-117906800D01*
X173482000Y-112293400D02*
X173304200Y-111734600D01*
X124942600Y-111404400D02*
X124409200Y-111658400D01*
X173050200Y-117906800D02*
X173355000Y-117424200D01*
X125526800Y-111379000D02*
X124942600Y-111404400D01*
X124282200Y-97764600D02*
X124663200Y-98196400D01*
X124409200Y-111658400D02*
X124028200Y-112090200D01*
X130581400Y-95224600D02*
X130632200Y-94640400D01*
X129921000Y-96139000D02*
X130352800Y-95758000D01*
X119888000Y-108762800D02*
X120065800Y-109499400D01*
X172034200Y-99568000D02*
X171983400Y-99999800D01*
X120065800Y-100507800D02*
X119888000Y-101269800D01*
X172516800Y-98856800D02*
X172212000Y-99187000D01*
X134467600Y-118287800D02*
X134874000Y-118338600D01*
X130606800Y-114427000D02*
X130175000Y-114020600D01*
X130352800Y-95758000D02*
X130581400Y-95224600D01*
M02*
