%TF.GenerationSoftware,KiCad,Pcbnew,7.0.1-0*%
%TF.CreationDate,2023-10-13T23:04:16+03:00*%
%TF.ProjectId,trezor_v1.1,7472657a-6f72-45f7-9631-2e312e6b6963,rev?*%
%TF.SameCoordinates,Original*%
%TF.FileFunction,Soldermask,Bot*%
%TF.FilePolarity,Negative*%
%FSLAX46Y46*%
G04 Gerber Fmt 4.6, Leading zero omitted, Abs format (unit mm)*
G04 Created by KiCad (PCBNEW 7.0.1-0) date 2023-10-13 23:04:16*
%MOMM*%
%LPD*%
G01*
G04 APERTURE LIST*
G04 Aperture macros list*
%AMRoundRect*
0 Rectangle with rounded corners*
0 $1 Rounding radius*
0 $2 $3 $4 $5 $6 $7 $8 $9 X,Y pos of 4 corners*
0 Add a 4 corners polygon primitive as box body*
4,1,4,$2,$3,$4,$5,$6,$7,$8,$9,$2,$3,0*
0 Add four circle primitives for the rounded corners*
1,1,$1+$1,$2,$3*
1,1,$1+$1,$4,$5*
1,1,$1+$1,$6,$7*
1,1,$1+$1,$8,$9*
0 Add four rect primitives between the rounded corners*
20,1,$1+$1,$2,$3,$4,$5,0*
20,1,$1+$1,$4,$5,$6,$7,0*
20,1,$1+$1,$6,$7,$8,$9,0*
20,1,$1+$1,$8,$9,$2,$3,0*%
%AMFreePoly0*
4,1,19,0.500000,-0.750000,0.000000,-0.750000,0.000000,-0.744911,-0.071157,-0.744911,-0.207708,-0.704816,-0.327430,-0.627875,-0.420627,-0.520320,-0.479746,-0.390866,-0.500000,-0.250000,-0.500000,0.250000,-0.479746,0.390866,-0.420627,0.520320,-0.327430,0.627875,-0.207708,0.704816,-0.071157,0.744911,0.000000,0.744911,0.000000,0.750000,0.500000,0.750000,0.500000,-0.750000,0.500000,-0.750000,
$1*%
%AMFreePoly1*
4,1,19,0.000000,0.744911,0.071157,0.744911,0.207708,0.704816,0.327430,0.627875,0.420627,0.520320,0.479746,0.390866,0.500000,0.250000,0.500000,-0.250000,0.479746,-0.390866,0.420627,-0.520320,0.327430,-0.627875,0.207708,-0.704816,0.071157,-0.744911,0.000000,-0.744911,0.000000,-0.750000,-0.500000,-0.750000,-0.500000,0.750000,0.000000,0.750000,0.000000,0.744911,0.000000,0.744911,
$1*%
G04 Aperture macros list end*
%ADD10C,0.400000*%
%ADD11RoundRect,0.101600X1.100000X0.175000X-1.100000X0.175000X-1.100000X-0.175000X1.100000X-0.175000X0*%
%ADD12RoundRect,0.101600X0.553200X0.553200X-0.553200X0.553200X-0.553200X-0.553200X0.553200X-0.553200X0*%
%ADD13C,1.309600*%
%ADD14C,0.650000*%
%ADD15O,2.100000X1.000000*%
%ADD16O,1.600000X1.000000*%
%ADD17RoundRect,0.225000X0.225000X0.250000X-0.225000X0.250000X-0.225000X-0.250000X0.225000X-0.250000X0*%
%ADD18RoundRect,0.200000X0.200000X0.275000X-0.200000X0.275000X-0.200000X-0.275000X0.200000X-0.275000X0*%
%ADD19RoundRect,0.200000X-0.200000X-0.275000X0.200000X-0.275000X0.200000X0.275000X-0.200000X0.275000X0*%
%ADD20FreePoly0,180.000000*%
%ADD21FreePoly1,180.000000*%
G04 APERTURE END LIST*
D10*
X170194400Y-113003600D03*
X170194400Y-97003600D03*
D11*
X165944400Y-115153600D03*
X165944400Y-114453600D03*
X165944400Y-113753600D03*
X165944400Y-113053600D03*
X165944400Y-112353600D03*
X165944400Y-111653600D03*
X165944400Y-110953600D03*
X165944400Y-110253600D03*
X165944400Y-109553600D03*
X165944400Y-108853600D03*
X165944400Y-108153600D03*
X165944400Y-107453600D03*
X165944400Y-106753600D03*
X165944400Y-106053600D03*
X165944400Y-105353600D03*
X165944400Y-104653600D03*
X165944400Y-103953600D03*
X165944400Y-103253600D03*
X165944400Y-102553600D03*
X165944400Y-101853600D03*
X165944400Y-101153600D03*
X165944400Y-100453600D03*
X165944400Y-99753600D03*
X165944400Y-99053600D03*
X165944400Y-98353600D03*
X165944400Y-97653600D03*
X165944400Y-96953600D03*
X165944400Y-96253600D03*
X165944400Y-95553600D03*
X165944400Y-94853600D03*
D12*
X144081500Y-93268800D03*
D13*
X142494000Y-93268800D03*
X140906500Y-93268800D03*
X139319000Y-93268800D03*
X137731500Y-93268800D03*
X136144000Y-93268800D03*
D14*
X125028000Y-102139000D03*
X125028000Y-107919000D03*
D15*
X125558000Y-100709000D03*
D16*
X121378000Y-100709000D03*
D15*
X125558000Y-109349000D03*
D16*
X121378000Y-109349000D03*
D17*
X123076000Y-102743000D03*
X121526000Y-102743000D03*
D18*
X123126000Y-107315000D03*
X121476000Y-107315000D03*
D19*
X125950000Y-105875000D03*
X127600000Y-105875000D03*
X125950000Y-104175000D03*
X127600000Y-104175000D03*
D20*
X122824000Y-105029000D03*
D21*
X121524000Y-105029000D03*
M02*
