%TF.GenerationSoftware,KiCad,Pcbnew,7.0.1-0*%
%TF.CreationDate,2023-10-13T23:04:16+03:00*%
%TF.ProjectId,trezor_v1.1,7472657a-6f72-45f7-9631-2e312e6b6963,rev?*%
%TF.SameCoordinates,Original*%
%TF.FileFunction,Paste,Top*%
%TF.FilePolarity,Positive*%
%FSLAX46Y46*%
G04 Gerber Fmt 4.6, Leading zero omitted, Abs format (unit mm)*
G04 Created by KiCad (PCBNEW 7.0.1-0) date 2023-10-13 23:04:16*
%MOMM*%
%LPD*%
G01*
G04 APERTURE LIST*
G04 Aperture macros list*
%AMRoundRect*
0 Rectangle with rounded corners*
0 $1 Rounding radius*
0 $2 $3 $4 $5 $6 $7 $8 $9 X,Y pos of 4 corners*
0 Add a 4 corners polygon primitive as box body*
4,1,4,$2,$3,$4,$5,$6,$7,$8,$9,$2,$3,0*
0 Add four circle primitives for the rounded corners*
1,1,$1+$1,$2,$3*
1,1,$1+$1,$4,$5*
1,1,$1+$1,$6,$7*
1,1,$1+$1,$8,$9*
0 Add four rect primitives between the rounded corners*
20,1,$1+$1,$2,$3,$4,$5,0*
20,1,$1+$1,$4,$5,$6,$7,0*
20,1,$1+$1,$6,$7,$8,$9,0*
20,1,$1+$1,$8,$9,$2,$3,0*%
G04 Aperture macros list end*
%ADD10R,1.200000X1.400000*%
%ADD11R,1.220000X0.650000*%
%ADD12RoundRect,0.075000X0.662500X0.075000X-0.662500X0.075000X-0.662500X-0.075000X0.662500X-0.075000X0*%
%ADD13RoundRect,0.075000X0.075000X0.662500X-0.075000X0.662500X-0.075000X-0.662500X0.075000X-0.662500X0*%
%ADD14RoundRect,0.237500X0.237500X-0.287500X0.237500X0.287500X-0.237500X0.287500X-0.237500X-0.287500X0*%
%ADD15R,1.000000X0.700000*%
%ADD16R,0.600000X0.700000*%
%ADD17RoundRect,0.250000X0.250000X0.250000X-0.250000X0.250000X-0.250000X-0.250000X0.250000X-0.250000X0*%
%ADD18RoundRect,0.200000X0.200000X0.275000X-0.200000X0.275000X-0.200000X-0.275000X0.200000X-0.275000X0*%
%ADD19RoundRect,0.200000X-0.200000X-0.275000X0.200000X-0.275000X0.200000X0.275000X-0.200000X0.275000X0*%
%ADD20RoundRect,0.225000X0.250000X-0.225000X0.250000X0.225000X-0.250000X0.225000X-0.250000X-0.225000X0*%
%ADD21RoundRect,0.225000X-0.250000X0.225000X-0.250000X-0.225000X0.250000X-0.225000X0.250000X0.225000X0*%
%ADD22RoundRect,0.225000X-0.225000X-0.250000X0.225000X-0.250000X0.225000X0.250000X-0.225000X0.250000X0*%
%ADD23RoundRect,0.225000X0.225000X0.250000X-0.225000X0.250000X-0.225000X-0.250000X0.225000X-0.250000X0*%
%ADD24RoundRect,0.200000X0.275000X-0.200000X0.275000X0.200000X-0.275000X0.200000X-0.275000X-0.200000X0*%
%ADD25R,1.450000X0.600000*%
%ADD26R,1.450000X0.300000*%
%ADD27R,1.000000X1.450000*%
G04 APERTURE END LIST*
D10*
X146597000Y-103903600D03*
X146597000Y-106103600D03*
X148297000Y-106103600D03*
X148297000Y-103903600D03*
D11*
X139232000Y-113980000D03*
X139232000Y-112080000D03*
X136612000Y-113030000D03*
D12*
X143889300Y-106467600D03*
X143889300Y-105967600D03*
X143889300Y-105467600D03*
X143889300Y-104967600D03*
X143889300Y-104467600D03*
X143889300Y-103967600D03*
X143889300Y-103467600D03*
X143889300Y-102967600D03*
X143889300Y-102467600D03*
X143889300Y-101967600D03*
X143889300Y-101467600D03*
X143889300Y-100967600D03*
X143889300Y-100467600D03*
X143889300Y-99967600D03*
X143889300Y-99467600D03*
X143889300Y-98967600D03*
D13*
X141976800Y-97055100D03*
X141476800Y-97055100D03*
X140976800Y-97055100D03*
X140476800Y-97055100D03*
X139976800Y-97055100D03*
X139476800Y-97055100D03*
X138976800Y-97055100D03*
X138476800Y-97055100D03*
X137976800Y-97055100D03*
X137476800Y-97055100D03*
X136976800Y-97055100D03*
X136476800Y-97055100D03*
X135976800Y-97055100D03*
X135476800Y-97055100D03*
X134976800Y-97055100D03*
X134476800Y-97055100D03*
D12*
X132564300Y-98967600D03*
X132564300Y-99467600D03*
X132564300Y-99967600D03*
X132564300Y-100467600D03*
X132564300Y-100967600D03*
X132564300Y-101467600D03*
X132564300Y-101967600D03*
X132564300Y-102467600D03*
X132564300Y-102967600D03*
X132564300Y-103467600D03*
X132564300Y-103967600D03*
X132564300Y-104467600D03*
X132564300Y-104967600D03*
X132564300Y-105467600D03*
X132564300Y-105967600D03*
X132564300Y-106467600D03*
D13*
X134476800Y-108380100D03*
X134976800Y-108380100D03*
X135476800Y-108380100D03*
X135976800Y-108380100D03*
X136476800Y-108380100D03*
X136976800Y-108380100D03*
X137476800Y-108380100D03*
X137976800Y-108380100D03*
X138476800Y-108380100D03*
X138976800Y-108380100D03*
X139476800Y-108380100D03*
X139976800Y-108380100D03*
X140476800Y-108380100D03*
X140976800Y-108380100D03*
X141476800Y-108380100D03*
X141976800Y-108380100D03*
D14*
X134874000Y-114540000D03*
X134874000Y-112790000D03*
D15*
X130290000Y-104664000D03*
D16*
X128590000Y-104664000D03*
X128590000Y-106664000D03*
X130490000Y-106664000D03*
D17*
X132949000Y-112141000D03*
X130449000Y-112141000D03*
D18*
X130365000Y-102870000D03*
X128715000Y-102870000D03*
X130365000Y-108458000D03*
X128715000Y-108458000D03*
X130365000Y-110236000D03*
X128715000Y-110236000D03*
X130365000Y-101092000D03*
X128715000Y-101092000D03*
D19*
X128715000Y-99314000D03*
X130365000Y-99314000D03*
D20*
X150241000Y-104534000D03*
X150241000Y-102984000D03*
D21*
X150241000Y-106286000D03*
X150241000Y-107836000D03*
D22*
X136004000Y-94996000D03*
X137554000Y-94996000D03*
D23*
X135395000Y-110363000D03*
X133845000Y-110363000D03*
D20*
X132080000Y-109868000D03*
X132080000Y-108318000D03*
D22*
X140449000Y-110363000D03*
X141999000Y-110363000D03*
X132829000Y-94996000D03*
X134379000Y-94996000D03*
D20*
X143764000Y-110249000D03*
X143764000Y-108699000D03*
D23*
X142456200Y-94996000D03*
X140906200Y-94996000D03*
D20*
X144272000Y-96533000D03*
X144272000Y-94983000D03*
X170840400Y-104052500D03*
X170840400Y-102502500D03*
D21*
X170840400Y-105905000D03*
X170840400Y-107455000D03*
D20*
X170840400Y-110984500D03*
X170840400Y-109434500D03*
X170815000Y-116472000D03*
X170815000Y-114922000D03*
D21*
X141224000Y-112128000D03*
X141224000Y-113678000D03*
D22*
X136626000Y-115697000D03*
X138176000Y-115697000D03*
D20*
X143002000Y-113678000D03*
X143002000Y-112128000D03*
D24*
X170840400Y-100647000D03*
X170840400Y-98997000D03*
D21*
X170840400Y-93611400D03*
X170840400Y-95161400D03*
D25*
X126473000Y-101779000D03*
X126473000Y-102579000D03*
D26*
X126473000Y-103779000D03*
X126473000Y-104779000D03*
X126473000Y-105279000D03*
X126473000Y-106279000D03*
D25*
X126473000Y-107479000D03*
X126473000Y-108279000D03*
X126473000Y-108279000D03*
X126473000Y-107479000D03*
D26*
X126473000Y-106779000D03*
X126473000Y-105779000D03*
X126473000Y-104279000D03*
X126473000Y-103279000D03*
D25*
X126473000Y-102579000D03*
X126473000Y-101779000D03*
D27*
X148220800Y-109693000D03*
X148220800Y-114843000D03*
X146520800Y-109693000D03*
X146520800Y-114843000D03*
X148220800Y-95164200D03*
X148220800Y-100314200D03*
X146520800Y-95164200D03*
X146520800Y-100314200D03*
M02*
